<svg width="11" height="12" viewBox="0 0 11 12" fill="none" xmlns="http://www.w3.org/2000/svg">
<path d="M0.767234 0.00181873C0.559178 0.014867 0.363942 0.106812 0.221364 0.258895C0.0787862 0.410978 -0.000386495 0.611736 1.41875e-06 0.820201V11.1864C0.000855153 11.3305 0.0397304 11.4718 0.112698 11.596C0.185665 11.7203 0.290138 11.823 0.415558 11.894C0.540978 11.9649 0.6829 12.0015 0.826978 12C0.971056 11.9985 1.11218 11.9589 1.2361 11.8854L9.9655 6.70234C10.0874 6.6298 10.1883 6.52683 10.2584 6.40353C10.3285 6.28024 10.3654 6.14085 10.3654 5.99902C10.3654 5.8572 10.3285 5.7178 10.2584 5.59451C10.1883 5.47122 10.0874 5.36825 9.9655 5.29571L1.2361 0.112625C1.09447 0.0294843 0.9311 -0.00912206 0.767234 0.00181873ZM1.63677 2.25237L7.94512 6.0033L1.63677 9.74568V2.25237Z" fill="#31353D"/>
</svg>
