<svg width="15" height="15" viewBox="0 0 15 15" fill="none" xmlns="http://www.w3.org/2000/svg">
<path d="M7.5 13.6667C10.9003 13.6667 13.6667 10.9003 13.6667 7.5C13.6667 4.09967 10.9003 1.33333 7.5 1.33333C4.09967 1.33333 1.33333 4.09967 1.33333 7.5C1.33333 10.9003 4.09967 13.6667 7.5 13.6667ZM7.5 15C3.35783 15 0 11.6422 0 7.5C0 3.35783 3.35783 0 7.5 0C11.6422 0 15 3.35783 15 7.5C15 11.6422 11.6422 15 7.5 15Z" fill="#31353D"/>
<path d="M8.3334 4.02783C8.17657 4.02783 8.01907 4.08283 7.89224 4.19483C7.61624 4.4385 7.59024 4.85983 7.83407 5.13583L9.33374 6.83333H3.61157C3.2434 6.83333 2.9449 7.13183 2.9449 7.5C2.9449 7.86817 3.2434 8.16667 3.61157 8.16667H9.35674L7.9324 9.87933C7.69924 10.1597 7.73457 10.5753 8.01174 10.8123C8.28874 11.049 8.7049 11.0197 8.94574 10.7457L11.3624 7.99567C11.5841 7.7435 11.5836 7.36583 11.3612 7.11417L8.8334 4.253C8.70157 4.104 8.5179 4.02783 8.3334 4.02783Z" fill="#31353D"/>
</svg>
