<svg width="20" height="22" viewBox="0 0 20 22" fill="none" xmlns="http://www.w3.org/2000/svg">
<mask id="path-1-outside-1" maskUnits="userSpaceOnUse" x="0" y="0" width="20" height="22" fill="black">
<rect fill="white" width="20" height="22"/>
<path d="M13.8745 11.3172C13.1367 11.0324 12.4635 10.7605 12.114 10.4239C13.2532 10.1133 14.0946 9.07767 14.0946 7.93851V5.18123C14.0946 2.96764 12.1658 1.02589 9.96516 1H9.95221C9.95221 1 9.96516 1 9.95221 1C7.72567 1 5.80982 2.98058 5.80982 5.23301V7.92557C5.80982 9.06472 6.53474 10.0744 7.66095 10.3981C7.32438 10.7346 6.58652 11.0194 5.84865 11.3042C3.95868 12.0421 1.35674 13.0518 1.00723 16.4563C0.942504 17.0906 1.31791 17.699 1.91338 17.945L8.90367 20.8058C9.21435 20.9353 9.53797 21 9.8616 21C10.1852 21 10.5088 20.9353 10.8195 20.8058L17.7969 17.945C18.3923 17.699 18.7677 17.0906 18.703 16.4563C18.3794 13.0647 15.7775 12.055 13.8745 11.3172ZM17.4344 17.0129L10.4571 19.8738C10.0817 20.0291 9.68037 20.0291 9.30496 19.8738L2.31467 17.0129C2.13344 16.9353 2.01694 16.754 2.02988 16.5599C2.31467 13.7767 4.38587 12.9612 6.21111 12.2492C7.14315 11.8867 7.94574 11.5761 8.43765 11.0194C8.65771 10.7605 8.73538 10.411 8.64477 10.0874C8.54121 9.75081 8.28231 9.50486 7.94574 9.41424C7.24671 9.23301 6.74186 8.59871 6.74186 7.91262V5.23301C6.74186 3.52427 8.21758 2.02265 9.88749 2.02265H9.90043H9.93927C11.5703 2.0356 13.072 3.53722 13.072 5.18123V7.93851C13.072 8.6246 12.5283 9.2589 11.8163 9.45308C11.4797 9.54369 11.1949 9.80259 11.0914 10.1392C10.9878 10.4757 11.0655 10.8252 11.2985 11.0712C11.7904 11.6019 12.58 11.9126 13.4991 12.2751C15.3373 12.9871 17.4215 13.8026 17.6933 16.5858C17.7321 16.754 17.6156 16.9482 17.4344 17.0129Z"/>
</mask>
<path d="M13.8745 11.3172C13.1367 11.0324 12.4635 10.7605 12.114 10.4239C13.2532 10.1133 14.0946 9.07767 14.0946 7.93851V5.18123C14.0946 2.96764 12.1658 1.02589 9.96516 1H9.95221C9.95221 1 9.96516 1 9.95221 1C7.72567 1 5.80982 2.98058 5.80982 5.23301V7.92557C5.80982 9.06472 6.53474 10.0744 7.66095 10.3981C7.32438 10.7346 6.58652 11.0194 5.84865 11.3042C3.95868 12.0421 1.35674 13.0518 1.00723 16.4563C0.942504 17.0906 1.31791 17.699 1.91338 17.945L8.90367 20.8058C9.21435 20.9353 9.53797 21 9.8616 21C10.1852 21 10.5088 20.9353 10.8195 20.8058L17.7969 17.945C18.3923 17.699 18.7677 17.0906 18.703 16.4563C18.3794 13.0647 15.7775 12.055 13.8745 11.3172ZM17.4344 17.0129L10.4571 19.8738C10.0817 20.0291 9.68037 20.0291 9.30496 19.8738L2.31467 17.0129C2.13344 16.9353 2.01694 16.754 2.02988 16.5599C2.31467 13.7767 4.38587 12.9612 6.21111 12.2492C7.14315 11.8867 7.94574 11.5761 8.43765 11.0194C8.65771 10.7605 8.73538 10.411 8.64477 10.0874C8.54121 9.75081 8.28231 9.50486 7.94574 9.41424C7.24671 9.23301 6.74186 8.59871 6.74186 7.91262V5.23301C6.74186 3.52427 8.21758 2.02265 9.88749 2.02265H9.90043H9.93927C11.5703 2.0356 13.072 3.53722 13.072 5.18123V7.93851C13.072 8.6246 12.5283 9.2589 11.8163 9.45308C11.4797 9.54369 11.1949 9.80259 11.0914 10.1392C10.9878 10.4757 11.0655 10.8252 11.2985 11.0712C11.7904 11.6019 12.58 11.9126 13.4991 12.2751C15.3373 12.9871 17.4215 13.8026 17.6933 16.5858C17.7321 16.754 17.6156 16.9482 17.4344 17.0129Z" fill="#8F9094"/>
<path d="M13.8745 11.3172C13.1367 11.0324 12.4635 10.7605 12.114 10.4239C13.2532 10.1133 14.0946 9.07767 14.0946 7.93851V5.18123C14.0946 2.96764 12.1658 1.02589 9.96516 1H9.95221C9.95221 1 9.96516 1 9.95221 1C7.72567 1 5.80982 2.98058 5.80982 5.23301V7.92557C5.80982 9.06472 6.53474 10.0744 7.66095 10.3981C7.32438 10.7346 6.58652 11.0194 5.84865 11.3042C3.95868 12.0421 1.35674 13.0518 1.00723 16.4563C0.942504 17.0906 1.31791 17.699 1.91338 17.945L8.90367 20.8058C9.21435 20.9353 9.53797 21 9.8616 21C10.1852 21 10.5088 20.9353 10.8195 20.8058L17.7969 17.945C18.3923 17.699 18.7677 17.0906 18.703 16.4563C18.3794 13.0647 15.7775 12.055 13.8745 11.3172ZM17.4344 17.0129L10.4571 19.8738C10.0817 20.0291 9.68037 20.0291 9.30496 19.8738L2.31467 17.0129C2.13344 16.9353 2.01694 16.754 2.02988 16.5599C2.31467 13.7767 4.38587 12.9612 6.21111 12.2492C7.14315 11.8867 7.94574 11.5761 8.43765 11.0194C8.65771 10.7605 8.73538 10.411 8.64477 10.0874C8.54121 9.75081 8.28231 9.50486 7.94574 9.41424C7.24671 9.23301 6.74186 8.59871 6.74186 7.91262V5.23301C6.74186 3.52427 8.21758 2.02265 9.88749 2.02265H9.90043H9.93927C11.5703 2.0356 13.072 3.53722 13.072 5.18123V7.93851C13.072 8.6246 12.5283 9.2589 11.8163 9.45308C11.4797 9.54369 11.1949 9.80259 11.0914 10.1392C10.9878 10.4757 11.0655 10.8252 11.2985 11.0712C11.7904 11.6019 12.58 11.9126 13.4991 12.2751C15.3373 12.9871 17.4215 13.8026 17.6933 16.5858C17.7321 16.754 17.6156 16.9482 17.4344 17.0129Z" stroke="#8F9094" stroke-width="0.8" mask="url(#path-1-outside-1)"/>
</svg>
