<svg width="16" height="16" viewBox="0 0 16 16" fill="none" xmlns="http://www.w3.org/2000/svg">
<path fill-rule="evenodd" clip-rule="evenodd" d="M3.95125 12.0488L5.07422 15.0635L8.00001 13.7258L10.9258 15.0635L12.0488 12.0488L15.0635 10.9258L13.7258 8.00001L15.0635 5.07422L12.0488 3.95125L10.9258 0.936523L8.00001 2.2742L5.07422 0.936523L3.95125 3.95125L0.936523 5.07422L2.2742 8.00001L0.936523 10.9258L3.95125 12.0488ZM10.1767 13.2549L8.00004 12.2597L5.82339 13.2549L4.98796 11.0121L2.74514 10.1767L3.74031 8.00001L2.74514 5.82336L4.98796 4.98792L5.82339 2.74511L8.00004 3.74027L10.1767 2.74511L11.0121 4.98792L13.2549 5.82336L12.2598 8.00001L13.2549 10.1767L11.0121 11.0121L10.1767 13.2549ZM8.00002 11.3333C6.15907 11.3333 4.66668 9.84096 4.66668 8.00001C4.66668 6.15906 6.15907 4.66668 8.00002 4.66668C9.84096 4.66668 11.3333 6.15906 11.3333 8.00001C11.3333 9.84096 9.84096 11.3333 8.00002 11.3333ZM10 8.00001C10 9.10458 9.1046 10 8.00003 10C6.89546 10 6.00003 9.10458 6.00003 8.00001C6.00003 6.89544 6.89546 6.00001 8.00003 6.00001C9.1046 6.00001 10 6.89544 10 8.00001Z" fill="#31353D"/>
</svg>
