<svg width="14" height="12" viewBox="0 0 14 12" fill="none" xmlns="http://www.w3.org/2000/svg">
<path fill-rule="evenodd" clip-rule="evenodd" d="M7.66682 5.33333C6.42426 5.33333 5.3802 4.48349 5.08417 3.33333H0.333496V2H5.08417C5.3802 0.849848 6.42426 0 7.66682 0C9.13958 0 10.3335 1.19391 10.3335 2.66667C10.3335 4.13943 9.13958 5.33333 7.66682 5.33333ZM11.6668 2H13.6668V3.33333H11.6668V2ZM4.3335 12C3.09094 12 2.04688 11.1502 1.75085 10H0.333496V8.66667H1.75085C2.04687 7.51652 3.09094 6.66667 4.3335 6.66667C5.80626 6.66667 7.00017 7.86057 7.00017 9.33333C7.00017 10.8061 5.80626 12 4.3335 12ZM13.6668 8.66667H8.3335V10H13.6668V8.66667ZM5.66682 9.33333C5.66682 10.0697 5.06987 10.6667 4.33349 10.6667C3.59711 10.6667 3.00016 10.0697 3.00016 9.33333C3.00016 8.59695 3.59711 8 4.33349 8C5.06987 8 5.66682 8.59695 5.66682 9.33333ZM9.00016 2.66667C9.00016 3.40305 8.40321 4 7.66683 4C6.93045 4 6.3335 3.40305 6.3335 2.66667C6.3335 1.93029 6.93045 1.33333 7.66683 1.33333C8.40321 1.33333 9.00016 1.93029 9.00016 2.66667Z" fill="#31353D"/>
</svg>
