<svg width="14" height="14" viewBox="0 0 14 14" fill="none" xmlns="http://www.w3.org/2000/svg">
<path fill-rule="evenodd" clip-rule="evenodd" d="M5.66683 11C2.72131 11 0.333496 8.61223 0.333496 5.66671C0.333496 2.72119 2.72131 0.333374 5.66683 0.333374C8.61235 0.333374 11.0002 2.72119 11.0002 5.66671C11.0002 6.89918 10.5821 8.03401 9.88007 8.93714L13.4715 12.5286L12.5287 13.4714L8.93726 9.87994C8.03414 10.582 6.8993 11 5.66683 11ZM9.66683 5.66672C9.66683 7.87586 7.87597 9.66672 5.66683 9.66672C3.45769 9.66672 1.66683 7.87586 1.66683 5.66672C1.66683 3.45758 3.45769 1.66672 5.66683 1.66672C7.87597 1.66672 9.66683 3.45758 9.66683 5.66672Z" fill="#31353D"/>
</svg>
