<svg width="19" height="18" viewBox="0 0 19 18" fill="none" xmlns="http://www.w3.org/2000/svg">
<path d="M14.1272 17.0707L14.1272 17.0707L14.1298 17.0723C14.3205 17.1867 14.5478 17.1673 14.7095 17.0627C14.8759 16.955 14.9789 16.7514 14.9035 16.5162L13.6014 11.1448L17.7744 7.56789C18.1564 7.32447 18.0094 6.6946 17.5262 6.68915L11.9921 6.2551L9.92893 1.15135C9.92889 1.15125 9.92885 1.15115 9.92881 1.15105C9.84532 0.942727 9.64162 0.85 9.45836 0.85C9.27529 0.85 9.07184 0.942529 8.98818 1.15038L6.87027 6.2551L1.3904 6.68915C1.21486 6.69119 1.01204 6.77691 0.910695 6.93906C0.855924 7.0267 0.833252 7.1345 0.863455 7.24982C0.892617 7.36117 0.967108 7.46505 1.07831 7.56038L1.07904 7.561L5.3152 11.1454L4.01412 16.5124C3.93706 16.7194 4.02514 16.9194 4.16743 17.0332C4.31335 17.1499 4.53304 17.1915 4.73173 17.0723L4.73174 17.0723L4.73366 17.0711L9.4579 14.1388L14.1272 17.0707ZM11.1969 6.95119L11.1965 6.95135L11.2015 6.96141C11.2373 7.03286 11.2906 7.10449 11.3554 7.16006C11.4172 7.213 11.5035 7.26299 11.6051 7.26512L16.204 7.62282L12.6862 10.5799C12.5834 10.6401 12.5441 10.7441 12.5276 10.8267C12.5109 10.9105 12.5109 11.0059 12.5109 11.0832L12.5109 11.0908V11.1088L12.5152 11.1263L13.5878 15.5191L9.7029 13.1166L9.70323 13.1161L9.69109 13.11C9.61081 13.0699 9.5178 13.0528 9.43075 13.0528C9.3437 13.0528 9.2507 13.0699 9.17041 13.11L9.17014 13.1095L9.1586 13.1166L5.27249 15.5199L6.34299 11.0849C6.3836 10.9906 6.37815 10.8868 6.34981 10.8018C6.3216 10.7171 6.26403 10.6311 6.17563 10.58L2.70862 7.62282L7.25608 7.26515C7.49444 7.26233 7.6453 7.10116 7.71517 6.96141L7.71555 6.9616L7.71982 6.95119L9.45836 2.70709L11.1969 6.95119Z" fill="#31353D" stroke="#31353D" stroke-width="0.3"/>
</svg>
