<svg width="13" height="14" viewBox="0 0 13 14" fill="none" xmlns="http://www.w3.org/2000/svg">
<path fill-rule="evenodd" clip-rule="evenodd" d="M6.66667 5.00001C6.66667 3.68363 7.21364 2.45652 8.15987 1.57844L9.14493 0.664326L7.82112 0.433051C7.44229 0.366867 7.05645 0.333344 6.66667 0.333344C2.98477 0.333344 0 3.31811 0 7.00001C0 10.6819 2.98477 13.6667 6.66667 13.6667C8.92358 13.6667 10.9895 12.5359 12.2177 10.6931L12.9621 9.5762L11.6224 9.65789C11.5265 9.66374 11.4301 9.66668 11.3333 9.66668C8.756 9.66668 6.66667 7.57734 6.66667 5.00001ZM6.66664 12.3333C3.72113 12.3333 1.33331 9.94553 1.33331 7.00001C1.33331 4.16529 3.54488 1.8471 6.33674 1.67672C5.6911 2.64567 5.33331 3.79457 5.33331 5.00001C5.33331 7.95935 7.47578 10.4183 10.2942 10.9104C9.3252 11.8102 8.04062 12.3333 6.66664 12.3333Z" fill="black"/>
</svg>
