<svg width="16" height="16" viewBox="0 0 16 16" fill="none" xmlns="http://www.w3.org/2000/svg">
<path d="M14.3636 0.95H5.45455C5.10374 0.95 4.7673 1.08936 4.51924 1.33742C4.27118 1.58548 4.13182 1.92192 4.13182 2.27273V3.49545H2.27273C1.92192 3.49545 1.58548 3.63481 1.33742 3.88287C1.08936 4.13093 0.95 4.46737 0.95 4.81818V13.7273C0.95 14.0781 1.08936 14.4145 1.33742 14.6626C1.58548 14.9106 1.92192 15.05 2.27273 15.05H11.1818C11.5326 15.05 11.8691 14.9106 12.1171 14.6626C12.3652 14.4145 12.5045 14.0781 12.5045 13.7273V12.5045H14.3636C14.7144 12.5045 15.0509 12.3652 15.2989 12.1171C15.547 11.8691 15.6864 11.5326 15.6864 11.1818V2.27273C15.6864 1.92192 15.547 1.58548 15.2989 1.33742C15.0509 1.08936 14.7144 0.95 14.3636 0.95ZM11.1318 13.6773H2.32273V4.86818H4.13182V11.1818C4.13182 11.5326 4.27118 11.8691 4.51924 12.1171C4.7673 12.3652 5.10374 12.5045 5.45455 12.5045H11.1318V13.6773ZM12.4545 11.1318H5.50455V2.32273H14.3136V11.1318H12.4545Z" fill="#31353D" stroke="#31353D" stroke-width="0.1"/>
</svg>
