<svg width="18" height="18" viewBox="0 0 18 18" fill="none" xmlns="http://www.w3.org/2000/svg">
<mask id="path-1-outside-1" maskUnits="userSpaceOnUse" x="0" y="0" width="18" height="18" fill="black">
<rect fill="white" width="18" height="18"/>
<path d="M9.5201 17H8.48309C8.32309 17 8.16571 16.9593 8.02575 16.8817C7.88578 16.8042 7.76782 16.6923 7.68293 16.5567C7.60772 16.4383 7.14843 15.6685 6.91478 15.2124L6.08582 14.8716C5.58011 15.0316 4.66953 15.2588 4.59112 15.2781C4.43475 15.314 4.27182 15.3097 4.11759 15.2655C3.96335 15.2212 3.82288 15.1386 3.70934 15.0252L2.97479 14.2907C2.8613 14.1772 2.77855 14.0367 2.73431 13.8825C2.69008 13.7282 2.68582 13.5652 2.72194 13.4089C2.75395 13.2713 2.97159 12.4023 3.12843 11.9142L2.78756 11.0884C2.30746 10.8452 1.5073 10.3603 1.44329 10.3203C1.30765 10.2354 1.19581 10.1174 1.11827 9.97745C1.04073 9.83748 1.00004 9.68011 1 9.5201V8.47989C1.00004 8.31989 1.04073 8.16251 1.11827 8.02255C1.19581 7.88258 1.30765 7.76462 1.44329 7.67973C1.56171 7.60452 2.33147 7.14523 2.78756 6.91158L3.12843 6.08582C2.96839 5.58011 2.74115 4.66953 2.72194 4.59112C2.68597 4.43475 2.69031 4.27182 2.73453 4.11759C2.77876 3.96335 2.86143 3.82288 2.97479 3.70934L3.70934 2.97479C3.8228 2.8613 3.96326 2.77855 4.11752 2.73431C4.27178 2.69008 4.43476 2.68582 4.59112 2.72194C4.72874 2.75395 5.59772 2.97159 6.08582 3.12842L6.91158 2.78756C7.15483 2.30746 7.63973 1.5073 7.67973 1.44329C7.76462 1.30765 7.88258 1.19581 8.02255 1.11827C8.16251 1.04073 8.31989 1.00004 8.47989 1H9.5169C9.67691 1.00004 9.83428 1.04073 9.97425 1.11827C10.1142 1.19581 10.2322 1.30765 10.3171 1.44329C10.3923 1.56171 10.8516 2.33147 11.0852 2.78756L11.911 3.12842C12.4167 2.96839 13.3273 2.74115 13.4057 2.72194C13.562 2.68597 13.725 2.69031 13.8792 2.73453C14.0334 2.77876 14.1739 2.86143 14.2875 2.97479L15.022 3.70934C15.1355 3.8228 15.2182 3.96326 15.2625 4.11752C15.3067 4.27178 15.311 4.43476 15.2748 4.59112C15.2428 4.72874 15.0252 5.59772 14.8684 6.08582L15.2092 6.91158C15.6893 7.15483 16.4895 7.63973 16.5535 7.67973C16.6891 7.76462 16.801 7.88258 16.8785 8.02255C16.9561 8.16251 16.9968 8.31989 16.9968 8.47989V9.5169C16.9968 9.67691 16.9561 9.83428 16.8785 9.97425C16.801 10.1142 16.6891 10.2322 16.5535 10.3171C16.4351 10.3923 15.6653 10.8516 15.2092 11.0852L14.8748 11.9142C15.0348 12.4199 15.262 13.3305 15.2813 13.4089C15.3172 13.5652 15.3129 13.7282 15.2687 13.8824C15.2244 14.0366 15.1418 14.1771 15.0284 14.2907L14.2939 15.0252C14.1803 15.1386 14.0398 15.2212 13.8856 15.2655C13.7314 15.3097 13.5684 15.314 13.4121 15.2781C13.2745 15.246 12.4055 15.0284 11.9174 14.8716L11.0916 15.2124C10.8484 15.6925 10.3635 16.4927 10.3235 16.5567C10.2383 16.6928 10.1198 16.8049 9.97925 16.8825C9.83868 16.9601 9.68065 17.0005 9.5201 17ZM6.10982 13.921L7.56131 14.5243L7.63332 14.6843C7.78055 15.0044 8.31186 15.9038 8.43348 16.0878C8.43903 16.0968 8.44682 16.1042 8.45608 16.1092C8.46534 16.1143 8.47575 16.1168 8.48629 16.1166H9.5233C9.53385 16.1168 9.54426 16.1143 9.55352 16.1092C9.56278 16.1042 9.57056 16.0968 9.57611 16.0878C9.67053 15.9374 10.2162 15.0252 10.3763 14.6843L10.4483 14.5243L11.9046 13.921L12.0646 13.9802C12.3959 14.1018 13.4057 14.3611 13.6185 14.4123C13.6284 14.4152 13.6389 14.4152 13.6488 14.4124C13.6588 14.4096 13.6677 14.404 13.6745 14.3963L14.4091 13.6617C14.4166 13.6548 14.4221 13.6458 14.4249 13.636C14.4278 13.6261 14.4278 13.6156 14.4251 13.6057C14.3851 13.4345 14.1258 12.4023 13.993 12.0518L13.9338 11.8918L14.5339 10.4387L14.6939 10.3667C15.014 10.2194 15.9134 9.68814 16.0974 9.56651C16.1064 9.56096 16.1138 9.55318 16.1188 9.54392C16.1239 9.53466 16.1264 9.52425 16.1262 9.5137V8.47669C16.1264 8.46615 16.1239 8.45574 16.1188 8.44648C16.1138 8.43722 16.1064 8.42943 16.0974 8.42388C15.947 8.32946 15.0348 7.78375 14.6939 7.62372L14.5339 7.55171L13.9306 6.09542L13.9898 5.93539C14.1114 5.60412 14.3707 4.59432 14.4219 4.38148C14.4241 4.37155 14.4238 4.36121 14.421 4.35143C14.4182 4.34164 14.413 4.33272 14.4059 4.32546L13.6713 3.59092C13.6644 3.58337 13.6554 3.57788 13.6456 3.57506C13.6357 3.57224 13.6252 3.57219 13.6153 3.57491C13.4441 3.61492 12.4151 3.87417 12.0614 4.007L11.9014 4.06621L10.4419 3.46609L10.3699 3.30606C10.2226 2.986 9.69134 2.08662 9.56971 1.90258C9.56416 1.89361 9.55638 1.88624 9.54712 1.88119C9.53786 1.87614 9.52745 1.87358 9.5169 1.87377H8.48629C8.47575 1.87358 8.46534 1.87614 8.45608 1.88119C8.44682 1.88624 8.43903 1.89361 8.43348 1.90258C8.33907 2.05301 7.79336 2.96519 7.63332 3.30606L7.56131 3.46609L6.10502 4.06941L5.94499 4.0102C5.61372 3.88858 4.60392 3.62932 4.39108 3.57811C4.38118 3.5752 4.37067 3.57516 4.36075 3.57799C4.35083 3.58082 4.34193 3.58642 4.33507 3.59412L3.60052 4.32866C3.59297 4.33563 3.58749 4.34455 3.58466 4.35443C3.58184 4.36431 3.58179 4.37477 3.58452 4.38468C3.62452 4.55591 3.88378 5.58812 4.0166 5.93859L4.07581 6.09862L3.47569 7.55811L3.31566 7.63012C2.9956 7.77735 2.09622 8.30866 1.91218 8.43028C1.90321 8.43583 1.89584 8.44362 1.89079 8.45288C1.88574 8.46214 1.88319 8.47255 1.88338 8.48309V9.5201C1.88319 9.53065 1.88574 9.54106 1.89079 9.55032C1.89584 9.55958 1.90321 9.56736 1.91218 9.57291C2.06261 9.66733 2.97479 10.213 3.31566 10.3731L3.47569 10.4451L4.07901 11.9014L4.0198 12.0614C3.89818 12.3927 3.63893 13.4025 3.58772 13.6153C3.58548 13.6252 3.58578 13.6356 3.58858 13.6454C3.59137 13.6552 3.59658 13.6641 3.60372 13.6713L4.33827 14.4059C4.34524 14.4134 4.35415 14.4189 4.36403 14.4217C4.37391 14.4246 4.38437 14.4246 4.39428 14.4219C4.56551 14.3819 5.59452 14.1226 5.94819 13.9898L6.10982 13.921ZM9.0016 12.7367C8.26222 12.7367 7.53945 12.5175 6.92468 12.1067C6.30992 11.6959 5.83076 11.1121 5.54782 10.429C5.26487 9.74591 5.19084 8.99425 5.33508 8.26908C5.47933 7.54391 5.83537 6.8778 6.35819 6.35499C6.88101 5.83217 7.54711 5.47613 8.27228 5.33188C8.99745 5.18764 9.74911 5.26167 10.4322 5.54462C11.1153 5.82756 11.6991 6.30672 12.1099 6.92148C12.5207 7.53625 12.7399 8.25902 12.7399 8.9984C12.7383 9.98935 12.3438 10.9392 11.6431 11.6399C10.9424 12.3406 9.99255 12.7351 9.0016 12.7367ZM9.0016 6.14503C8.43725 6.14503 7.88558 6.31237 7.41635 6.62591C6.94712 6.93944 6.58139 7.38507 6.36543 7.90646C6.14946 8.42785 6.09296 9.00156 6.20305 9.55506C6.31315 10.1086 6.58491 10.617 6.98396 11.016C7.38301 11.4151 7.89143 11.6868 8.44493 11.7969C8.99843 11.907 9.57215 11.8505 10.0935 11.6346C10.6149 11.4186 11.0606 11.0529 11.3741 10.5836C11.6876 10.1144 11.855 9.56274 11.855 8.9984C11.8541 8.2419 11.5532 7.51662 11.0183 6.9817C10.4834 6.44677 9.7581 6.14587 9.0016 6.14503Z"/>
</mask>
<path d="M9.5201 17H8.48309C8.32309 17 8.16571 16.9593 8.02575 16.8817C7.88578 16.8042 7.76782 16.6923 7.68293 16.5567C7.60772 16.4383 7.14843 15.6685 6.91478 15.2124L6.08582 14.8716C5.58011 15.0316 4.66953 15.2588 4.59112 15.2781C4.43475 15.314 4.27182 15.3097 4.11759 15.2655C3.96335 15.2212 3.82288 15.1386 3.70934 15.0252L2.97479 14.2907C2.8613 14.1772 2.77855 14.0367 2.73431 13.8825C2.69008 13.7282 2.68582 13.5652 2.72194 13.4089C2.75395 13.2713 2.97159 12.4023 3.12843 11.9142L2.78756 11.0884C2.30746 10.8452 1.5073 10.3603 1.44329 10.3203C1.30765 10.2354 1.19581 10.1174 1.11827 9.97745C1.04073 9.83748 1.00004 9.68011 1 9.5201V8.47989C1.00004 8.31989 1.04073 8.16251 1.11827 8.02255C1.19581 7.88258 1.30765 7.76462 1.44329 7.67973C1.56171 7.60452 2.33147 7.14523 2.78756 6.91158L3.12843 6.08582C2.96839 5.58011 2.74115 4.66953 2.72194 4.59112C2.68597 4.43475 2.69031 4.27182 2.73453 4.11759C2.77876 3.96335 2.86143 3.82288 2.97479 3.70934L3.70934 2.97479C3.8228 2.8613 3.96326 2.77855 4.11752 2.73431C4.27178 2.69008 4.43476 2.68582 4.59112 2.72194C4.72874 2.75395 5.59772 2.97159 6.08582 3.12842L6.91158 2.78756C7.15483 2.30746 7.63973 1.5073 7.67973 1.44329C7.76462 1.30765 7.88258 1.19581 8.02255 1.11827C8.16251 1.04073 8.31989 1.00004 8.47989 1H9.5169C9.67691 1.00004 9.83428 1.04073 9.97425 1.11827C10.1142 1.19581 10.2322 1.30765 10.3171 1.44329C10.3923 1.56171 10.8516 2.33147 11.0852 2.78756L11.911 3.12842C12.4167 2.96839 13.3273 2.74115 13.4057 2.72194C13.562 2.68597 13.725 2.69031 13.8792 2.73453C14.0334 2.77876 14.1739 2.86143 14.2875 2.97479L15.022 3.70934C15.1355 3.8228 15.2182 3.96326 15.2625 4.11752C15.3067 4.27178 15.311 4.43476 15.2748 4.59112C15.2428 4.72874 15.0252 5.59772 14.8684 6.08582L15.2092 6.91158C15.6893 7.15483 16.4895 7.63973 16.5535 7.67973C16.6891 7.76462 16.801 7.88258 16.8785 8.02255C16.9561 8.16251 16.9968 8.31989 16.9968 8.47989V9.5169C16.9968 9.67691 16.9561 9.83428 16.8785 9.97425C16.801 10.1142 16.6891 10.2322 16.5535 10.3171C16.4351 10.3923 15.6653 10.8516 15.2092 11.0852L14.8748 11.9142C15.0348 12.4199 15.262 13.3305 15.2813 13.4089C15.3172 13.5652 15.3129 13.7282 15.2687 13.8824C15.2244 14.0366 15.1418 14.1771 15.0284 14.2907L14.2939 15.0252C14.1803 15.1386 14.0398 15.2212 13.8856 15.2655C13.7314 15.3097 13.5684 15.314 13.4121 15.2781C13.2745 15.246 12.4055 15.0284 11.9174 14.8716L11.0916 15.2124C10.8484 15.6925 10.3635 16.4927 10.3235 16.5567C10.2383 16.6928 10.1198 16.8049 9.97925 16.8825C9.83868 16.9601 9.68065 17.0005 9.5201 17ZM6.10982 13.921L7.56131 14.5243L7.63332 14.6843C7.78055 15.0044 8.31186 15.9038 8.43348 16.0878C8.43903 16.0968 8.44682 16.1042 8.45608 16.1092C8.46534 16.1143 8.47575 16.1168 8.48629 16.1166H9.5233C9.53385 16.1168 9.54426 16.1143 9.55352 16.1092C9.56278 16.1042 9.57056 16.0968 9.57611 16.0878C9.67053 15.9374 10.2162 15.0252 10.3763 14.6843L10.4483 14.5243L11.9046 13.921L12.0646 13.9802C12.3959 14.1018 13.4057 14.3611 13.6185 14.4123C13.6284 14.4152 13.6389 14.4152 13.6488 14.4124C13.6588 14.4096 13.6677 14.404 13.6745 14.3963L14.4091 13.6617C14.4166 13.6548 14.4221 13.6458 14.4249 13.636C14.4278 13.6261 14.4278 13.6156 14.4251 13.6057C14.3851 13.4345 14.1258 12.4023 13.993 12.0518L13.9338 11.8918L14.5339 10.4387L14.6939 10.3667C15.014 10.2194 15.9134 9.68814 16.0974 9.56651C16.1064 9.56096 16.1138 9.55318 16.1188 9.54392C16.1239 9.53466 16.1264 9.52425 16.1262 9.5137V8.47669C16.1264 8.46615 16.1239 8.45574 16.1188 8.44648C16.1138 8.43722 16.1064 8.42943 16.0974 8.42388C15.947 8.32946 15.0348 7.78375 14.6939 7.62372L14.5339 7.55171L13.9306 6.09542L13.9898 5.93539C14.1114 5.60412 14.3707 4.59432 14.4219 4.38148C14.4241 4.37155 14.4238 4.36121 14.421 4.35143C14.4182 4.34164 14.413 4.33272 14.4059 4.32546L13.6713 3.59092C13.6644 3.58337 13.6554 3.57788 13.6456 3.57506C13.6357 3.57224 13.6252 3.57219 13.6153 3.57491C13.4441 3.61492 12.4151 3.87417 12.0614 4.007L11.9014 4.06621L10.4419 3.46609L10.3699 3.30606C10.2226 2.986 9.69134 2.08662 9.56971 1.90258C9.56416 1.89361 9.55638 1.88624 9.54712 1.88119C9.53786 1.87614 9.52745 1.87358 9.5169 1.87377H8.48629C8.47575 1.87358 8.46534 1.87614 8.45608 1.88119C8.44682 1.88624 8.43903 1.89361 8.43348 1.90258C8.33907 2.05301 7.79336 2.96519 7.63332 3.30606L7.56131 3.46609L6.10502 4.06941L5.94499 4.0102C5.61372 3.88858 4.60392 3.62932 4.39108 3.57811C4.38118 3.5752 4.37067 3.57516 4.36075 3.57799C4.35083 3.58082 4.34193 3.58642 4.33507 3.59412L3.60052 4.32866C3.59297 4.33563 3.58749 4.34455 3.58466 4.35443C3.58184 4.36431 3.58179 4.37477 3.58452 4.38468C3.62452 4.55591 3.88378 5.58812 4.0166 5.93859L4.07581 6.09862L3.47569 7.55811L3.31566 7.63012C2.9956 7.77735 2.09622 8.30866 1.91218 8.43028C1.90321 8.43583 1.89584 8.44362 1.89079 8.45288C1.88574 8.46214 1.88319 8.47255 1.88338 8.48309V9.5201C1.88319 9.53065 1.88574 9.54106 1.89079 9.55032C1.89584 9.55958 1.90321 9.56736 1.91218 9.57291C2.06261 9.66733 2.97479 10.213 3.31566 10.3731L3.47569 10.4451L4.07901 11.9014L4.0198 12.0614C3.89818 12.3927 3.63893 13.4025 3.58772 13.6153C3.58548 13.6252 3.58578 13.6356 3.58858 13.6454C3.59137 13.6552 3.59658 13.6641 3.60372 13.6713L4.33827 14.4059C4.34524 14.4134 4.35415 14.4189 4.36403 14.4217C4.37391 14.4246 4.38437 14.4246 4.39428 14.4219C4.56551 14.3819 5.59452 14.1226 5.94819 13.9898L6.10982 13.921ZM9.0016 12.7367C8.26222 12.7367 7.53945 12.5175 6.92468 12.1067C6.30992 11.6959 5.83076 11.1121 5.54782 10.429C5.26487 9.74591 5.19084 8.99425 5.33508 8.26908C5.47933 7.54391 5.83537 6.8778 6.35819 6.35499C6.88101 5.83217 7.54711 5.47613 8.27228 5.33188C8.99745 5.18764 9.74911 5.26167 10.4322 5.54462C11.1153 5.82756 11.6991 6.30672 12.1099 6.92148C12.5207 7.53625 12.7399 8.25902 12.7399 8.9984C12.7383 9.98935 12.3438 10.9392 11.6431 11.6399C10.9424 12.3406 9.99255 12.7351 9.0016 12.7367ZM9.0016 6.14503C8.43725 6.14503 7.88558 6.31237 7.41635 6.62591C6.94712 6.93944 6.58139 7.38507 6.36543 7.90646C6.14946 8.42785 6.09296 9.00156 6.20305 9.55506C6.31315 10.1086 6.58491 10.617 6.98396 11.016C7.38301 11.4151 7.89143 11.6868 8.44493 11.7969C8.99843 11.907 9.57215 11.8505 10.0935 11.6346C10.6149 11.4186 11.0606 11.0529 11.3741 10.5836C11.6876 10.1144 11.855 9.56274 11.855 8.9984C11.8541 8.2419 11.5532 7.51662 11.0183 6.9817C10.4834 6.44677 9.7581 6.14587 9.0016 6.14503Z" fill="#31353D"/>
<path d="M9.5201 17H8.48309C8.32309 17 8.16571 16.9593 8.02575 16.8817C7.88578 16.8042 7.76782 16.6923 7.68293 16.5567C7.60772 16.4383 7.14843 15.6685 6.91478 15.2124L6.08582 14.8716C5.58011 15.0316 4.66953 15.2588 4.59112 15.2781C4.43475 15.314 4.27182 15.3097 4.11759 15.2655C3.96335 15.2212 3.82288 15.1386 3.70934 15.0252L2.97479 14.2907C2.8613 14.1772 2.77855 14.0367 2.73431 13.8825C2.69008 13.7282 2.68582 13.5652 2.72194 13.4089C2.75395 13.2713 2.97159 12.4023 3.12843 11.9142L2.78756 11.0884C2.30746 10.8452 1.5073 10.3603 1.44329 10.3203C1.30765 10.2354 1.19581 10.1174 1.11827 9.97745C1.04073 9.83748 1.00004 9.68011 1 9.5201V8.47989C1.00004 8.31989 1.04073 8.16251 1.11827 8.02255C1.19581 7.88258 1.30765 7.76462 1.44329 7.67973C1.56171 7.60452 2.33147 7.14523 2.78756 6.91158L3.12843 6.08582C2.96839 5.58011 2.74115 4.66953 2.72194 4.59112C2.68597 4.43475 2.69031 4.27182 2.73453 4.11759C2.77876 3.96335 2.86143 3.82288 2.97479 3.70934L3.70934 2.97479C3.8228 2.8613 3.96326 2.77855 4.11752 2.73431C4.27178 2.69008 4.43476 2.68582 4.59112 2.72194C4.72874 2.75395 5.59772 2.97159 6.08582 3.12842L6.91158 2.78756C7.15483 2.30746 7.63973 1.5073 7.67973 1.44329C7.76462 1.30765 7.88258 1.19581 8.02255 1.11827C8.16251 1.04073 8.31989 1.00004 8.47989 1H9.5169C9.67691 1.00004 9.83428 1.04073 9.97425 1.11827C10.1142 1.19581 10.2322 1.30765 10.3171 1.44329C10.3923 1.56171 10.8516 2.33147 11.0852 2.78756L11.911 3.12842C12.4167 2.96839 13.3273 2.74115 13.4057 2.72194C13.562 2.68597 13.725 2.69031 13.8792 2.73453C14.0334 2.77876 14.1739 2.86143 14.2875 2.97479L15.022 3.70934C15.1355 3.8228 15.2182 3.96326 15.2625 4.11752C15.3067 4.27178 15.311 4.43476 15.2748 4.59112C15.2428 4.72874 15.0252 5.59772 14.8684 6.08582L15.2092 6.91158C15.6893 7.15483 16.4895 7.63973 16.5535 7.67973C16.6891 7.76462 16.801 7.88258 16.8785 8.02255C16.9561 8.16251 16.9968 8.31989 16.9968 8.47989V9.5169C16.9968 9.67691 16.9561 9.83428 16.8785 9.97425C16.801 10.1142 16.6891 10.2322 16.5535 10.3171C16.4351 10.3923 15.6653 10.8516 15.2092 11.0852L14.8748 11.9142C15.0348 12.4199 15.262 13.3305 15.2813 13.4089C15.3172 13.5652 15.3129 13.7282 15.2687 13.8824C15.2244 14.0366 15.1418 14.1771 15.0284 14.2907L14.2939 15.0252C14.1803 15.1386 14.0398 15.2212 13.8856 15.2655C13.7314 15.3097 13.5684 15.314 13.4121 15.2781C13.2745 15.246 12.4055 15.0284 11.9174 14.8716L11.0916 15.2124C10.8484 15.6925 10.3635 16.4927 10.3235 16.5567C10.2383 16.6928 10.1198 16.8049 9.97925 16.8825C9.83868 16.9601 9.68065 17.0005 9.5201 17ZM6.10982 13.921L7.56131 14.5243L7.63332 14.6843C7.78055 15.0044 8.31186 15.9038 8.43348 16.0878C8.43903 16.0968 8.44682 16.1042 8.45608 16.1092C8.46534 16.1143 8.47575 16.1168 8.48629 16.1166H9.5233C9.53385 16.1168 9.54426 16.1143 9.55352 16.1092C9.56278 16.1042 9.57056 16.0968 9.57611 16.0878C9.67053 15.9374 10.2162 15.0252 10.3763 14.6843L10.4483 14.5243L11.9046 13.921L12.0646 13.9802C12.3959 14.1018 13.4057 14.3611 13.6185 14.4123C13.6284 14.4152 13.6389 14.4152 13.6488 14.4124C13.6588 14.4096 13.6677 14.404 13.6745 14.3963L14.4091 13.6617C14.4166 13.6548 14.4221 13.6458 14.4249 13.636C14.4278 13.6261 14.4278 13.6156 14.4251 13.6057C14.3851 13.4345 14.1258 12.4023 13.993 12.0518L13.9338 11.8918L14.5339 10.4387L14.6939 10.3667C15.014 10.2194 15.9134 9.68814 16.0974 9.56651C16.1064 9.56096 16.1138 9.55318 16.1188 9.54392C16.1239 9.53466 16.1264 9.52425 16.1262 9.5137V8.47669C16.1264 8.46615 16.1239 8.45574 16.1188 8.44648C16.1138 8.43722 16.1064 8.42943 16.0974 8.42388C15.947 8.32946 15.0348 7.78375 14.6939 7.62372L14.5339 7.55171L13.9306 6.09542L13.9898 5.93539C14.1114 5.60412 14.3707 4.59432 14.4219 4.38148C14.4241 4.37155 14.4238 4.36121 14.421 4.35143C14.4182 4.34164 14.413 4.33272 14.4059 4.32546L13.6713 3.59092C13.6644 3.58337 13.6554 3.57788 13.6456 3.57506C13.6357 3.57224 13.6252 3.57219 13.6153 3.57491C13.4441 3.61492 12.4151 3.87417 12.0614 4.007L11.9014 4.06621L10.4419 3.46609L10.3699 3.30606C10.2226 2.986 9.69134 2.08662 9.56971 1.90258C9.56416 1.89361 9.55638 1.88624 9.54712 1.88119C9.53786 1.87614 9.52745 1.87358 9.5169 1.87377H8.48629C8.47575 1.87358 8.46534 1.87614 8.45608 1.88119C8.44682 1.88624 8.43903 1.89361 8.43348 1.90258C8.33907 2.05301 7.79336 2.96519 7.63332 3.30606L7.56131 3.46609L6.10502 4.06941L5.94499 4.0102C5.61372 3.88858 4.60392 3.62932 4.39108 3.57811C4.38118 3.5752 4.37067 3.57516 4.36075 3.57799C4.35083 3.58082 4.34193 3.58642 4.33507 3.59412L3.60052 4.32866C3.59297 4.33563 3.58749 4.34455 3.58466 4.35443C3.58184 4.36431 3.58179 4.37477 3.58452 4.38468C3.62452 4.55591 3.88378 5.58812 4.0166 5.93859L4.07581 6.09862L3.47569 7.55811L3.31566 7.63012C2.9956 7.77735 2.09622 8.30866 1.91218 8.43028C1.90321 8.43583 1.89584 8.44362 1.89079 8.45288C1.88574 8.46214 1.88319 8.47255 1.88338 8.48309V9.5201C1.88319 9.53065 1.88574 9.54106 1.89079 9.55032C1.89584 9.55958 1.90321 9.56736 1.91218 9.57291C2.06261 9.66733 2.97479 10.213 3.31566 10.3731L3.47569 10.4451L4.07901 11.9014L4.0198 12.0614C3.89818 12.3927 3.63893 13.4025 3.58772 13.6153C3.58548 13.6252 3.58578 13.6356 3.58858 13.6454C3.59137 13.6552 3.59658 13.6641 3.60372 13.6713L4.33827 14.4059C4.34524 14.4134 4.35415 14.4189 4.36403 14.4217C4.37391 14.4246 4.38437 14.4246 4.39428 14.4219C4.56551 14.3819 5.59452 14.1226 5.94819 13.9898L6.10982 13.921ZM9.0016 12.7367C8.26222 12.7367 7.53945 12.5175 6.92468 12.1067C6.30992 11.6959 5.83076 11.1121 5.54782 10.429C5.26487 9.74591 5.19084 8.99425 5.33508 8.26908C5.47933 7.54391 5.83537 6.8778 6.35819 6.35499C6.88101 5.83217 7.54711 5.47613 8.27228 5.33188C8.99745 5.18764 9.74911 5.26167 10.4322 5.54462C11.1153 5.82756 11.6991 6.30672 12.1099 6.92148C12.5207 7.53625 12.7399 8.25902 12.7399 8.9984C12.7383 9.98935 12.3438 10.9392 11.6431 11.6399C10.9424 12.3406 9.99255 12.7351 9.0016 12.7367ZM9.0016 6.14503C8.43725 6.14503 7.88558 6.31237 7.41635 6.62591C6.94712 6.93944 6.58139 7.38507 6.36543 7.90646C6.14946 8.42785 6.09296 9.00156 6.20305 9.55506C6.31315 10.1086 6.58491 10.617 6.98396 11.016C7.38301 11.4151 7.89143 11.6868 8.44493 11.7969C8.99843 11.907 9.57215 11.8505 10.0935 11.6346C10.6149 11.4186 11.0606 11.0529 11.3741 10.5836C11.6876 10.1144 11.855 9.56274 11.855 8.9984C11.8541 8.2419 11.5532 7.51662 11.0183 6.9817C10.4834 6.44677 9.7581 6.14587 9.0016 6.14503Z" stroke="black" stroke-width="0.4" mask="url(#path-1-outside-1)"/>
</svg>
