<svg width="19" height="18" viewBox="0 0 19 18" fill="none" xmlns="http://www.w3.org/2000/svg">
<path d="M14.074 17.1554L14.074 17.1554L14.0783 17.158C14.3042 17.2936 14.5725 17.2704 14.7638 17.1467C14.9628 17.0179 15.0884 16.7708 14.9999 16.4892L13.713 11.1808L17.8344 7.64821C18.286 7.35262 18.1144 6.59847 17.5308 6.5892L12.0617 6.16024L10.0218 1.11421C10.0217 1.1141 10.0217 1.11399 10.0216 1.11388C9.91935 0.858586 9.67183 0.75 9.45836 0.75C9.24527 0.75 8.99823 0.858208 8.89561 1.11255L6.80136 6.16024L1.3857 6.58921C1.18506 6.59267 0.948577 6.68977 0.825895 6.88606C0.757616 6.99531 0.729033 7.13127 0.766718 7.27516C0.802667 7.41242 0.892309 7.53265 1.01324 7.6363L1.01445 7.63733L5.20346 11.1819L3.91828 16.4833C3.82716 16.7358 3.93686 16.9768 4.10496 17.1113C4.27913 17.2506 4.54406 17.3015 4.78318 17.158L4.78319 17.1581L4.78639 17.1561L9.45759 14.2567L14.074 17.1554ZM11.1044 6.98909L11.1079 6.99776L11.1121 7.00613C11.1532 7.08841 11.2145 7.17098 11.2903 7.23598C11.3612 7.29675 11.468 7.36135 11.6 7.36503L15.9526 7.70356L12.6279 10.4982C12.4952 10.5798 12.448 10.7146 12.4296 10.8071C12.4108 10.9009 12.4109 11.0053 12.4109 11.0804L12.4109 11.0908V11.1208L12.418 11.1501L13.4328 15.3057L9.7555 13.0316L9.7459 13.0256L9.73581 13.0206C9.63881 12.9721 9.52982 12.9528 9.43075 12.9528C9.33168 12.9528 9.22269 12.9721 9.12569 13.0206L9.1156 13.0256L9.106 13.0316L5.42677 15.3069L6.43832 11.1162C6.48685 10.997 6.47814 10.8705 6.44468 10.7701C6.41142 10.6704 6.34313 10.5646 6.234 10.4983L2.95738 7.70356L7.26072 7.3651C7.54723 7.36022 7.72495 7.16546 7.80462 7.00613L7.8088 6.99776L7.81235 6.98909L9.45836 2.9709L11.1044 6.98909Z" fill="#8F9094" stroke="#8F9094" stroke-width="0.5"/>
</svg>
