<svg width="18" height="18" viewBox="0 0 18 18" fill="none" xmlns="http://www.w3.org/2000/svg">
<mask id="path-1-outside-1" maskUnits="userSpaceOnUse" x="0" y="0" width="18" height="18" fill="black">
<rect fill="white" width="18" height="18"/>
<path d="M16.5996 6.51314C16.5641 6.4065 16.493 6.3354 16.3864 6.28208C16.2798 6.24653 16.1732 6.2643 16.0843 6.31763C14.8229 7.0997 13.2061 6.90418 12.1578 5.85549C11.1095 4.80681 10.9141 3.18934 11.6958 1.92736C11.7491 1.83849 11.7669 1.71407 11.7314 1.6252C11.6958 1.51855 11.607 1.44746 11.5004 1.41191C8.60436 0.452094 5.47733 1.19862 3.34527 3.34931C1.83506 4.86013 1 6.86863 1 9.00155C1 11.1345 1.83506 13.143 3.34527 14.6538C4.85548 16.1646 6.86317 17 8.99523 17C11.1273 17 13.135 16.1646 14.6452 14.6538C16.795 12.5209 17.5413 9.39258 16.5996 6.51314ZM14.1477 14.1561C12.7796 15.5247 10.9496 16.289 8.99523 16.289C7.04084 16.289 5.22859 15.5247 3.84275 14.1561C2.47468 12.7697 1.71069 10.9567 1.71069 9.00155C1.71069 7.04637 2.47468 5.23339 3.84275 3.84699C5.22859 2.46059 7.07638 1.71407 8.97747 1.71407C9.59932 1.71407 10.2212 1.80294 10.843 1.96291C10.1501 3.43818 10.4521 5.19784 11.6248 6.37095C12.7974 7.54405 14.5564 7.84622 16.031 7.15302C16.7062 9.6592 15.9955 12.3076 14.1477 14.1561ZM7.04084 10.4235C6.06365 10.4235 5.26412 11.2233 5.26412 12.2009C5.26412 13.1785 6.06365 13.9784 7.04084 13.9784C8.01804 13.9784 8.81756 13.1785 8.81756 12.2009C8.81756 11.2233 8.01804 10.4235 7.04084 10.4235ZM7.04084 13.2674C6.45453 13.2674 5.97481 12.7875 5.97481 12.2009C5.97481 11.6144 6.45453 11.1345 7.04084 11.1345C7.62716 11.1345 8.10687 11.6144 8.10687 12.2009C8.10687 12.7875 7.62716 13.2674 7.04084 13.2674ZM7.04084 4.02474C6.06365 4.02474 5.26412 4.82458 5.26412 5.80217C5.26412 6.77976 6.06365 7.5796 7.04084 7.5796C8.01804 7.5796 8.81756 6.77976 8.81756 5.80217C8.81756 4.82458 8.01804 4.02474 7.04084 4.02474ZM7.04084 6.86863C6.45453 6.86863 5.97481 6.38872 5.97481 5.80217C5.97481 5.21562 6.45453 4.73571 7.04084 4.73571C7.62716 4.73571 8.10687 5.21562 8.10687 5.80217C8.10687 6.38872 7.62716 6.86863 7.04084 6.86863ZM12.904 9.53478C12.2111 9.53478 11.6603 10.0858 11.6603 10.779C11.6603 11.4722 12.2111 12.0232 12.904 12.0232C13.5969 12.0232 14.1477 11.4722 14.1477 10.779C14.1477 10.0858 13.5969 9.53478 12.904 9.53478ZM12.904 11.3122C12.602 11.3122 12.371 11.0811 12.371 10.779C12.371 10.4768 12.602 10.2458 12.904 10.2458C13.2061 10.2458 13.437 10.4768 13.437 10.779C13.437 11.0811 13.2061 11.3122 12.904 11.3122ZM11.305 8.64606C11.2872 8.64606 11.2517 8.64606 11.2339 8.64606C11.2161 8.64606 11.1984 8.62829 11.1628 8.62829C11.1451 8.62829 11.1273 8.61051 11.1095 8.59274C11.0918 8.57497 11.074 8.57497 11.0562 8.55719C11.0385 8.53942 11.0207 8.52164 11.0207 8.50387C11.0029 8.48609 11.0029 8.46832 10.9852 8.43277C10.9852 8.415 10.9674 8.39722 10.9674 8.36167C10.9674 8.3439 10.9674 8.30835 10.9674 8.29058C10.9674 8.2728 10.9674 8.23725 10.9674 8.21948C10.9674 8.2017 10.9852 8.18393 10.9852 8.14838C11.0029 8.13061 11.0029 8.11283 11.0207 8.07728C11.0385 8.05951 11.0562 8.04174 11.0562 8.02396C11.074 8.00619 11.0918 7.98841 11.1095 7.98841C11.1273 7.97064 11.1451 7.97064 11.1628 7.95286C11.1806 7.93509 11.1984 7.93509 11.2339 7.93509C11.2872 7.91732 11.3227 7.91732 11.376 7.93509C11.3938 7.93509 11.4116 7.95286 11.4471 7.95286C11.4649 7.95286 11.4826 7.97064 11.5004 7.98841C11.5182 8.00619 11.5359 8.00619 11.5537 8.02396C11.6248 8.11283 11.6603 8.2017 11.6603 8.29058C11.6603 8.37945 11.6248 8.46832 11.5537 8.53942C11.5359 8.55719 11.5182 8.57497 11.5004 8.57497C11.4826 8.59274 11.4649 8.59274 11.4471 8.61051C11.4293 8.62829 11.4116 8.62829 11.376 8.62829C11.3583 8.64606 11.3227 8.64606 11.305 8.64606ZM9.95466 9.99691C10.0257 10.068 10.0613 10.1569 10.0613 10.2458C10.0613 10.3346 10.0257 10.4235 9.95466 10.4946C9.88359 10.5657 9.79476 10.6012 9.70592 10.6012C9.61709 10.6012 9.52825 10.5657 9.45718 10.4946C9.38611 10.4235 9.35058 10.3346 9.35058 10.2458C9.35058 10.1569 9.38611 10.068 9.45718 9.99691C9.58155 9.85472 9.83029 9.85472 9.95466 9.99691ZM11.9091 13.7295C11.9801 13.8006 12.0157 13.8895 12.0157 13.9784C12.0157 14.0317 12.0157 14.0672 11.9801 14.1206C11.9624 14.1561 11.9446 14.2094 11.9091 14.2272C11.838 14.2983 11.7491 14.3338 11.6603 14.3338C11.5715 14.3338 11.4826 14.2983 11.4116 14.2272C11.3405 14.1561 11.305 14.0672 11.305 13.9784C11.305 13.8895 11.3405 13.8006 11.4116 13.7295C11.4293 13.7117 11.4471 13.694 11.4649 13.694C11.4826 13.6762 11.5004 13.6762 11.5182 13.6584C11.5359 13.6584 11.5537 13.6406 11.5892 13.6406C11.6425 13.6406 11.6781 13.6406 11.7314 13.6406C11.7491 13.6406 11.7669 13.6584 11.8025 13.6584C11.8202 13.6762 11.838 13.6762 11.8558 13.694C11.8735 13.694 11.8913 13.7117 11.9091 13.7295ZM3.73615 8.75271C3.80722 8.82381 3.84275 8.91268 3.84275 9.00155C3.84275 9.09042 3.80722 9.17929 3.73615 9.25039C3.66508 9.32149 3.57624 9.35704 3.48741 9.35704C3.39857 9.35704 3.30973 9.32149 3.23867 9.25039C3.1676 9.17929 3.13206 9.09042 3.13206 9.00155C3.13206 8.91268 3.1676 8.82381 3.23867 8.75271C3.36304 8.61051 3.61178 8.61051 3.73615 8.75271Z"/>
</mask>
<path d="M16.5996 6.51314C16.5641 6.4065 16.493 6.3354 16.3864 6.28208C16.2798 6.24653 16.1732 6.2643 16.0843 6.31763C14.8229 7.0997 13.2061 6.90418 12.1578 5.85549C11.1095 4.80681 10.9141 3.18934 11.6958 1.92736C11.7491 1.83849 11.7669 1.71407 11.7314 1.6252C11.6958 1.51855 11.607 1.44746 11.5004 1.41191C8.60436 0.452094 5.47733 1.19862 3.34527 3.34931C1.83506 4.86013 1 6.86863 1 9.00155C1 11.1345 1.83506 13.143 3.34527 14.6538C4.85548 16.1646 6.86317 17 8.99523 17C11.1273 17 13.135 16.1646 14.6452 14.6538C16.795 12.5209 17.5413 9.39258 16.5996 6.51314ZM14.1477 14.1561C12.7796 15.5247 10.9496 16.289 8.99523 16.289C7.04084 16.289 5.22859 15.5247 3.84275 14.1561C2.47468 12.7697 1.71069 10.9567 1.71069 9.00155C1.71069 7.04637 2.47468 5.23339 3.84275 3.84699C5.22859 2.46059 7.07638 1.71407 8.97747 1.71407C9.59932 1.71407 10.2212 1.80294 10.843 1.96291C10.1501 3.43818 10.4521 5.19784 11.6248 6.37095C12.7974 7.54405 14.5564 7.84622 16.031 7.15302C16.7062 9.6592 15.9955 12.3076 14.1477 14.1561ZM7.04084 10.4235C6.06365 10.4235 5.26412 11.2233 5.26412 12.2009C5.26412 13.1785 6.06365 13.9784 7.04084 13.9784C8.01804 13.9784 8.81756 13.1785 8.81756 12.2009C8.81756 11.2233 8.01804 10.4235 7.04084 10.4235ZM7.04084 13.2674C6.45453 13.2674 5.97481 12.7875 5.97481 12.2009C5.97481 11.6144 6.45453 11.1345 7.04084 11.1345C7.62716 11.1345 8.10687 11.6144 8.10687 12.2009C8.10687 12.7875 7.62716 13.2674 7.04084 13.2674ZM7.04084 4.02474C6.06365 4.02474 5.26412 4.82458 5.26412 5.80217C5.26412 6.77976 6.06365 7.5796 7.04084 7.5796C8.01804 7.5796 8.81756 6.77976 8.81756 5.80217C8.81756 4.82458 8.01804 4.02474 7.04084 4.02474ZM7.04084 6.86863C6.45453 6.86863 5.97481 6.38872 5.97481 5.80217C5.97481 5.21562 6.45453 4.73571 7.04084 4.73571C7.62716 4.73571 8.10687 5.21562 8.10687 5.80217C8.10687 6.38872 7.62716 6.86863 7.04084 6.86863ZM12.904 9.53478C12.2111 9.53478 11.6603 10.0858 11.6603 10.779C11.6603 11.4722 12.2111 12.0232 12.904 12.0232C13.5969 12.0232 14.1477 11.4722 14.1477 10.779C14.1477 10.0858 13.5969 9.53478 12.904 9.53478ZM12.904 11.3122C12.602 11.3122 12.371 11.0811 12.371 10.779C12.371 10.4768 12.602 10.2458 12.904 10.2458C13.2061 10.2458 13.437 10.4768 13.437 10.779C13.437 11.0811 13.2061 11.3122 12.904 11.3122ZM11.305 8.64606C11.2872 8.64606 11.2517 8.64606 11.2339 8.64606C11.2161 8.64606 11.1984 8.62829 11.1628 8.62829C11.1451 8.62829 11.1273 8.61051 11.1095 8.59274C11.0918 8.57497 11.074 8.57497 11.0562 8.55719C11.0385 8.53942 11.0207 8.52164 11.0207 8.50387C11.0029 8.48609 11.0029 8.46832 10.9852 8.43277C10.9852 8.415 10.9674 8.39722 10.9674 8.36167C10.9674 8.3439 10.9674 8.30835 10.9674 8.29058C10.9674 8.2728 10.9674 8.23725 10.9674 8.21948C10.9674 8.2017 10.9852 8.18393 10.9852 8.14838C11.0029 8.13061 11.0029 8.11283 11.0207 8.07728C11.0385 8.05951 11.0562 8.04174 11.0562 8.02396C11.074 8.00619 11.0918 7.98841 11.1095 7.98841C11.1273 7.97064 11.1451 7.97064 11.1628 7.95286C11.1806 7.93509 11.1984 7.93509 11.2339 7.93509C11.2872 7.91732 11.3227 7.91732 11.376 7.93509C11.3938 7.93509 11.4116 7.95286 11.4471 7.95286C11.4649 7.95286 11.4826 7.97064 11.5004 7.98841C11.5182 8.00619 11.5359 8.00619 11.5537 8.02396C11.6248 8.11283 11.6603 8.2017 11.6603 8.29058C11.6603 8.37945 11.6248 8.46832 11.5537 8.53942C11.5359 8.55719 11.5182 8.57497 11.5004 8.57497C11.4826 8.59274 11.4649 8.59274 11.4471 8.61051C11.4293 8.62829 11.4116 8.62829 11.376 8.62829C11.3583 8.64606 11.3227 8.64606 11.305 8.64606ZM9.95466 9.99691C10.0257 10.068 10.0613 10.1569 10.0613 10.2458C10.0613 10.3346 10.0257 10.4235 9.95466 10.4946C9.88359 10.5657 9.79476 10.6012 9.70592 10.6012C9.61709 10.6012 9.52825 10.5657 9.45718 10.4946C9.38611 10.4235 9.35058 10.3346 9.35058 10.2458C9.35058 10.1569 9.38611 10.068 9.45718 9.99691C9.58155 9.85472 9.83029 9.85472 9.95466 9.99691ZM11.9091 13.7295C11.9801 13.8006 12.0157 13.8895 12.0157 13.9784C12.0157 14.0317 12.0157 14.0672 11.9801 14.1206C11.9624 14.1561 11.9446 14.2094 11.9091 14.2272C11.838 14.2983 11.7491 14.3338 11.6603 14.3338C11.5715 14.3338 11.4826 14.2983 11.4116 14.2272C11.3405 14.1561 11.305 14.0672 11.305 13.9784C11.305 13.8895 11.3405 13.8006 11.4116 13.7295C11.4293 13.7117 11.4471 13.694 11.4649 13.694C11.4826 13.6762 11.5004 13.6762 11.5182 13.6584C11.5359 13.6584 11.5537 13.6406 11.5892 13.6406C11.6425 13.6406 11.6781 13.6406 11.7314 13.6406C11.7491 13.6406 11.7669 13.6584 11.8025 13.6584C11.8202 13.6762 11.838 13.6762 11.8558 13.694C11.8735 13.694 11.8913 13.7117 11.9091 13.7295ZM3.73615 8.75271C3.80722 8.82381 3.84275 8.91268 3.84275 9.00155C3.84275 9.09042 3.80722 9.17929 3.73615 9.25039C3.66508 9.32149 3.57624 9.35704 3.48741 9.35704C3.39857 9.35704 3.30973 9.32149 3.23867 9.25039C3.1676 9.17929 3.13206 9.09042 3.13206 9.00155C3.13206 8.91268 3.1676 8.82381 3.23867 8.75271C3.36304 8.61051 3.61178 8.61051 3.73615 8.75271Z" fill="#31353D"/>
<path d="M16.5996 6.51314C16.5641 6.4065 16.493 6.3354 16.3864 6.28208C16.2798 6.24653 16.1732 6.2643 16.0843 6.31763C14.8229 7.0997 13.2061 6.90418 12.1578 5.85549C11.1095 4.80681 10.9141 3.18934 11.6958 1.92736C11.7491 1.83849 11.7669 1.71407 11.7314 1.6252C11.6958 1.51855 11.607 1.44746 11.5004 1.41191C8.60436 0.452094 5.47733 1.19862 3.34527 3.34931C1.83506 4.86013 1 6.86863 1 9.00155C1 11.1345 1.83506 13.143 3.34527 14.6538C4.85548 16.1646 6.86317 17 8.99523 17C11.1273 17 13.135 16.1646 14.6452 14.6538C16.795 12.5209 17.5413 9.39258 16.5996 6.51314ZM14.1477 14.1561C12.7796 15.5247 10.9496 16.289 8.99523 16.289C7.04084 16.289 5.22859 15.5247 3.84275 14.1561C2.47468 12.7697 1.71069 10.9567 1.71069 9.00155C1.71069 7.04637 2.47468 5.23339 3.84275 3.84699C5.22859 2.46059 7.07638 1.71407 8.97747 1.71407C9.59932 1.71407 10.2212 1.80294 10.843 1.96291C10.1501 3.43818 10.4521 5.19784 11.6248 6.37095C12.7974 7.54405 14.5564 7.84622 16.031 7.15302C16.7062 9.6592 15.9955 12.3076 14.1477 14.1561ZM7.04084 10.4235C6.06365 10.4235 5.26412 11.2233 5.26412 12.2009C5.26412 13.1785 6.06365 13.9784 7.04084 13.9784C8.01804 13.9784 8.81756 13.1785 8.81756 12.2009C8.81756 11.2233 8.01804 10.4235 7.04084 10.4235ZM7.04084 13.2674C6.45453 13.2674 5.97481 12.7875 5.97481 12.2009C5.97481 11.6144 6.45453 11.1345 7.04084 11.1345C7.62716 11.1345 8.10687 11.6144 8.10687 12.2009C8.10687 12.7875 7.62716 13.2674 7.04084 13.2674ZM7.04084 4.02474C6.06365 4.02474 5.26412 4.82458 5.26412 5.80217C5.26412 6.77976 6.06365 7.5796 7.04084 7.5796C8.01804 7.5796 8.81756 6.77976 8.81756 5.80217C8.81756 4.82458 8.01804 4.02474 7.04084 4.02474ZM7.04084 6.86863C6.45453 6.86863 5.97481 6.38872 5.97481 5.80217C5.97481 5.21562 6.45453 4.73571 7.04084 4.73571C7.62716 4.73571 8.10687 5.21562 8.10687 5.80217C8.10687 6.38872 7.62716 6.86863 7.04084 6.86863ZM12.904 9.53478C12.2111 9.53478 11.6603 10.0858 11.6603 10.779C11.6603 11.4722 12.2111 12.0232 12.904 12.0232C13.5969 12.0232 14.1477 11.4722 14.1477 10.779C14.1477 10.0858 13.5969 9.53478 12.904 9.53478ZM12.904 11.3122C12.602 11.3122 12.371 11.0811 12.371 10.779C12.371 10.4768 12.602 10.2458 12.904 10.2458C13.2061 10.2458 13.437 10.4768 13.437 10.779C13.437 11.0811 13.2061 11.3122 12.904 11.3122ZM11.305 8.64606C11.2872 8.64606 11.2517 8.64606 11.2339 8.64606C11.2161 8.64606 11.1984 8.62829 11.1628 8.62829C11.1451 8.62829 11.1273 8.61051 11.1095 8.59274C11.0918 8.57497 11.074 8.57497 11.0562 8.55719C11.0385 8.53942 11.0207 8.52164 11.0207 8.50387C11.0029 8.48609 11.0029 8.46832 10.9852 8.43277C10.9852 8.415 10.9674 8.39722 10.9674 8.36167C10.9674 8.3439 10.9674 8.30835 10.9674 8.29058C10.9674 8.2728 10.9674 8.23725 10.9674 8.21948C10.9674 8.2017 10.9852 8.18393 10.9852 8.14838C11.0029 8.13061 11.0029 8.11283 11.0207 8.07728C11.0385 8.05951 11.0562 8.04174 11.0562 8.02396C11.074 8.00619 11.0918 7.98841 11.1095 7.98841C11.1273 7.97064 11.1451 7.97064 11.1628 7.95286C11.1806 7.93509 11.1984 7.93509 11.2339 7.93509C11.2872 7.91732 11.3227 7.91732 11.376 7.93509C11.3938 7.93509 11.4116 7.95286 11.4471 7.95286C11.4649 7.95286 11.4826 7.97064 11.5004 7.98841C11.5182 8.00619 11.5359 8.00619 11.5537 8.02396C11.6248 8.11283 11.6603 8.2017 11.6603 8.29058C11.6603 8.37945 11.6248 8.46832 11.5537 8.53942C11.5359 8.55719 11.5182 8.57497 11.5004 8.57497C11.4826 8.59274 11.4649 8.59274 11.4471 8.61051C11.4293 8.62829 11.4116 8.62829 11.376 8.62829C11.3583 8.64606 11.3227 8.64606 11.305 8.64606ZM9.95466 9.99691C10.0257 10.068 10.0613 10.1569 10.0613 10.2458C10.0613 10.3346 10.0257 10.4235 9.95466 10.4946C9.88359 10.5657 9.79476 10.6012 9.70592 10.6012C9.61709 10.6012 9.52825 10.5657 9.45718 10.4946C9.38611 10.4235 9.35058 10.3346 9.35058 10.2458C9.35058 10.1569 9.38611 10.068 9.45718 9.99691C9.58155 9.85472 9.83029 9.85472 9.95466 9.99691ZM11.9091 13.7295C11.9801 13.8006 12.0157 13.8895 12.0157 13.9784C12.0157 14.0317 12.0157 14.0672 11.9801 14.1206C11.9624 14.1561 11.9446 14.2094 11.9091 14.2272C11.838 14.2983 11.7491 14.3338 11.6603 14.3338C11.5715 14.3338 11.4826 14.2983 11.4116 14.2272C11.3405 14.1561 11.305 14.0672 11.305 13.9784C11.305 13.8895 11.3405 13.8006 11.4116 13.7295C11.4293 13.7117 11.4471 13.694 11.4649 13.694C11.4826 13.6762 11.5004 13.6762 11.5182 13.6584C11.5359 13.6584 11.5537 13.6406 11.5892 13.6406C11.6425 13.6406 11.6781 13.6406 11.7314 13.6406C11.7491 13.6406 11.7669 13.6584 11.8025 13.6584C11.8202 13.6762 11.838 13.6762 11.8558 13.694C11.8735 13.694 11.8913 13.7117 11.9091 13.7295ZM3.73615 8.75271C3.80722 8.82381 3.84275 8.91268 3.84275 9.00155C3.84275 9.09042 3.80722 9.17929 3.73615 9.25039C3.66508 9.32149 3.57624 9.35704 3.48741 9.35704C3.39857 9.35704 3.30973 9.32149 3.23867 9.25039C3.1676 9.17929 3.13206 9.09042 3.13206 9.00155C3.13206 8.91268 3.1676 8.82381 3.23867 8.75271C3.36304 8.61051 3.61178 8.61051 3.73615 8.75271Z" stroke="#31353D" stroke-width="0.4" mask="url(#path-1-outside-1)"/>
</svg>
