<svg width="17" height="17" viewBox="0 0 17 17" fill="none" xmlns="http://www.w3.org/2000/svg">
<path d="M8.4375 4V4.25H8.6875H8.875H11.6875C12.2432 4.25 12.75 4.75682 12.75 5.3125V8.125V8.3125V8.5625H13H13.1875H14.125C14.898 8.5625 15.5625 9.2114 15.5625 9.925C15.5625 10.6161 14.9208 11.25 14.125 11.25H13.1875H13H12.75V11.5V11.6875V14.5C12.75 15.0557 12.2432 15.5625 11.6875 15.5625H9.5V14.875C9.5 13.5804 8.39992 12.5625 7.075 12.5625C5.74579 12.5625 4.6875 13.5657 4.6875 14.875V15.5625H2.5C1.94432 15.5625 1.4375 15.0557 1.4375 14.5V12.3125H2.125C3.43427 12.3125 4.4375 11.2542 4.4375 9.925C4.4375 8.60008 3.41961 7.5 2.125 7.5H1.4375V5.3125C1.4375 4.75682 1.94432 4.25 2.5 4.25H5.3125H5.5H5.75V4V3.8125V2.875C5.75 2.07726 6.36703 1.4375 7.075 1.4375C7.7886 1.4375 8.4375 2.10198 8.4375 2.875V3.8125V4ZM13.4375 14.5V11.9375H14.125C15.2364 11.9375 16.25 11.0764 16.25 9.925C16.25 8.78018 15.2435 7.875 14.125 7.875H13.4375V5.3125C13.4375 4.38693 12.6131 3.5625 11.6875 3.5625H9.125V2.875C9.125 1.75481 8.19943 0.75 7.075 0.75C5.92356 0.75 5.0625 1.76365 5.0625 2.875V3.5625H2.5C1.57443 3.5625 0.75 4.38693 0.75 5.3125V7.9375V8.1875H1H2.125C3.03709 8.1875 3.75 8.97497 3.75 9.925C3.75 10.8687 3.04303 11.625 2.125 11.625H1H0.75V11.875V14.5C0.75 15.4256 1.57443 16.25 2.5 16.25H5.125H5.375V16V14.875C5.375 13.957 6.13132 13.25 7.075 13.25C8.02503 13.25 8.8125 13.9629 8.8125 14.875V16V16.25H9.0625H11.6875C12.6131 16.25 13.4375 15.4256 13.4375 14.5Z" fill="#31353D" stroke="#31353D" stroke-width="0.5"/>
</svg>
