<svg width="22" height="17" viewBox="0 0 22 17" fill="none" xmlns="http://www.w3.org/2000/svg">
<path fill-rule="evenodd" clip-rule="evenodd" d="M16 13V15H17C19.7614 15 22 12.7614 22 10C22 7.48496 20.1431 5.40363 17.7254 5.05224C16.875 2.10562 14.1586 0 11 0C8.65343 0 6.50902 1.16507 5.21989 3.05027C2.26703 3.43346 0 5.95877 0 9C0 12.3137 2.68629 15 6 15V13C3.79086 13 2 11.2091 2 9C2 6.85044 3.69934 5.08715 5.83966 5.00314L6.39066 4.98151L6.66642 4.50398C7.5543 2.96643 9.1924 2 11 2C13.4511 2 15.5303 3.77626 15.9309 6.16616L16.0738 7.01818L16.9375 7.00063C16.9531 7.00037 16.9608 7.00024 16.9686 7.00016C16.9765 7.00008 16.9843 7.00005 17 7C18.6569 7 20 8.34315 20 10C20 11.6569 18.6569 13 17 13H16ZM12 17V10.4142L14.2929 12.7071L15.7071 11.2929L11 6.58579L6.29289 11.2929L7.70711 12.7071L10 10.4142V17H12Z" fill="#7B8AA8"/>
</svg>
