<svg width="16" height="16" viewBox="0 0 16 16" fill="none" xmlns="http://www.w3.org/2000/svg">
<path d="M10.9273 9.3155H7.46064C7.24847 9.3155 7.04499 9.23121 6.89496 9.08118C6.74493 8.93115 6.66064 8.72767 6.66064 8.5155V4.5155H8.26064V7.7155H10.9273V9.3155Z" fill="#31353D"/>
<path d="M13.8045 5.3155C14.4393 6.69181 14.5651 8.24874 14.1594 9.7091C13.7538 11.1695 12.843 12.4385 11.5892 13.2901C10.3355 14.1418 8.82017 14.5209 7.31309 14.3599C5.80601 14.1989 4.40498 13.5082 3.35945 12.4109C2.31392 11.3136 1.69177 9.88086 1.60375 8.36776C1.51574 6.85466 1.96759 5.35943 2.87883 4.14829C3.79008 2.93716 5.10159 2.08873 6.57984 1.75408C8.05809 1.41943 9.60714 1.62027 10.9512 2.32084C11.021 1.779 11.2556 1.27168 11.6232 0.867509C9.9396 0.0122843 8.00777 -0.21983 6.16952 0.21224C4.33128 0.644309 2.70513 1.71271 1.57882 3.22838C0.452517 4.74405 -0.101334 6.60928 0.015276 8.49402C0.131886 10.3788 0.911438 12.1615 2.21599 13.5268C3.52054 14.892 5.26599 15.7518 7.14348 15.954C9.02096 16.1562 10.9094 15.6877 12.4748 14.6315C14.0401 13.5752 15.1813 11.9993 15.6965 10.1826C16.2117 8.36593 16.0676 6.42555 15.2898 4.70484C14.8692 5.05618 14.3506 5.26941 13.8045 5.3155Z" fill="#31353D"/>
<path d="M13.594 3.71548C14.1831 3.71548 14.6607 3.23792 14.6607 2.64882C14.6607 2.05972 14.1831 1.58215 13.594 1.58215C13.0049 1.58215 12.5273 2.05972 12.5273 2.64882C12.5273 3.23792 13.0049 3.71548 13.594 3.71548Z" fill="#31353D"/>
</svg>
