<svg width="14" height="14" viewBox="0 0 14 14" fill="none" xmlns="http://www.w3.org/2000/svg">
<path fill-rule="evenodd" clip-rule="evenodd" d="M13.6668 12.3334V7.66671H12.3335V12.3334H1.66683V1.66671H6.3335V0.333374H1.66683C0.93045 0.333374 0.333496 0.930328 0.333496 1.66671V12.3334C0.333496 13.0698 0.93045 13.6667 1.66683 13.6667H12.3335C13.0699 13.6667 13.6668 13.0698 13.6668 12.3334ZM11.7856 0.815656C11.48 0.507654 11.0616 0.333374 10.6251 0.333374C10.1891 0.333374 9.77109 0.50726 9.46375 0.81646L3.88449 6.39565C3.38594 6.83493 3.05912 7.4886 3.00233 8.19158L3.00016 10.3349V11.0016H5.75656C6.51276 10.9497 7.17285 10.6197 7.6385 10.0825L13.1862 4.53726C13.494 4.22948 13.6669 3.81203 13.6669 3.37676C13.6669 2.94149 13.494 2.52404 13.1862 2.21626L11.7856 0.815656ZM5.70948 9.66992C6.06563 9.64471 6.39715 9.47896 6.66336 9.17446L10.7046 5.13321L8.86841 3.29691L4.79756 7.36643C4.52746 7.60532 4.36037 7.93953 4.3335 8.24526V9.66867L5.70948 9.66992ZM9.81138 2.35425L11.6474 4.1904L12.2434 3.59446C12.3011 3.53672 12.3335 3.45841 12.3335 3.37676C12.3335 3.29511 12.3011 3.2168 12.2434 3.15906L10.8409 1.75661C10.7838 1.69907 10.7061 1.66671 10.6251 1.66671C10.544 1.66671 10.4663 1.69907 10.4092 1.75661L9.81138 2.35425Z" fill="#31353D"/>
</svg>
