<svg width="28" height="22" viewBox="0 0 28 22" fill="none" xmlns="http://www.w3.org/2000/svg">
<mask id="path-1-outside-1" maskUnits="userSpaceOnUse" x="4.34814" y="0" width="20" height="22" fill="black">
<rect fill="white" x="4.34814" width="20" height="22"/>
<path d="M18.2227 11.3172C17.4848 11.0324 16.8117 10.7605 16.4622 10.4239C17.6013 10.1133 18.4427 9.07767 18.4427 7.93851V5.18123C18.4427 2.96764 16.5139 1.02589 14.3133 1H14.3004C14.3004 1 14.3133 1 14.3004 1C12.0738 1 10.158 2.98058 10.158 5.23301V7.92557C10.158 9.06472 10.8829 10.0744 12.0091 10.3981C11.6725 10.7346 10.9347 11.0194 10.1968 11.3042C8.30683 12.0421 5.70489 13.0518 5.35537 16.4563C5.29065 17.0906 5.66605 17.699 6.26152 17.945L13.2518 20.8058C13.5625 20.9353 13.8861 21 14.2097 21C14.5334 21 14.857 20.9353 15.1677 20.8058L22.145 17.945C22.7405 17.699 23.1159 17.0906 23.0512 16.4563C22.7275 13.0647 20.1256 12.055 18.2227 11.3172ZM21.7826 17.0129L14.8052 19.8738C14.4298 20.0291 14.0285 20.0291 13.6531 19.8738L6.66282 17.0129C6.48159 16.9353 6.36508 16.754 6.37803 16.5599C6.66282 13.7767 8.73401 12.9612 10.5593 12.2492C11.4913 11.8867 12.2939 11.5761 12.7858 11.0194C13.0059 10.7605 13.0835 10.411 12.9929 10.0874C12.8894 9.75081 12.6305 9.50486 12.2939 9.41424C11.5949 9.23301 11.09 8.59871 11.09 7.91262V5.23301C11.09 3.52427 12.5657 2.02265 14.2356 2.02265H14.2486H14.2874C15.9185 2.0356 17.4201 3.53722 17.4201 5.18123V7.93851C17.4201 8.6246 16.8764 9.2589 16.1644 9.45308C15.8279 9.54369 15.5431 9.80259 15.4395 10.1392C15.336 10.4757 15.4136 10.8252 15.6466 11.0712C16.1385 11.6019 16.9282 11.9126 17.8473 12.2751C19.6855 12.9871 21.7696 13.8026 22.0415 16.5858C22.0803 16.754 21.9638 16.9482 21.7826 17.0129Z"/>
</mask>
<path d="M18.2227 11.3172C17.4848 11.0324 16.8117 10.7605 16.4622 10.4239C17.6013 10.1133 18.4427 9.07767 18.4427 7.93851V5.18123C18.4427 2.96764 16.5139 1.02589 14.3133 1H14.3004C14.3004 1 14.3133 1 14.3004 1C12.0738 1 10.158 2.98058 10.158 5.23301V7.92557C10.158 9.06472 10.8829 10.0744 12.0091 10.3981C11.6725 10.7346 10.9347 11.0194 10.1968 11.3042C8.30683 12.0421 5.70489 13.0518 5.35537 16.4563C5.29065 17.0906 5.66605 17.699 6.26152 17.945L13.2518 20.8058C13.5625 20.9353 13.8861 21 14.2097 21C14.5334 21 14.857 20.9353 15.1677 20.8058L22.145 17.945C22.7405 17.699 23.1159 17.0906 23.0512 16.4563C22.7275 13.0647 20.1256 12.055 18.2227 11.3172ZM21.7826 17.0129L14.8052 19.8738C14.4298 20.0291 14.0285 20.0291 13.6531 19.8738L6.66282 17.0129C6.48159 16.9353 6.36508 16.754 6.37803 16.5599C6.66282 13.7767 8.73401 12.9612 10.5593 12.2492C11.4913 11.8867 12.2939 11.5761 12.7858 11.0194C13.0059 10.7605 13.0835 10.411 12.9929 10.0874C12.8894 9.75081 12.6305 9.50486 12.2939 9.41424C11.5949 9.23301 11.09 8.59871 11.09 7.91262V5.23301C11.09 3.52427 12.5657 2.02265 14.2356 2.02265H14.2486H14.2874C15.9185 2.0356 17.4201 3.53722 17.4201 5.18123V7.93851C17.4201 8.6246 16.8764 9.2589 16.1644 9.45308C15.8279 9.54369 15.5431 9.80259 15.4395 10.1392C15.336 10.4757 15.4136 10.8252 15.6466 11.0712C16.1385 11.6019 16.9282 11.9126 17.8473 12.2751C19.6855 12.9871 21.7696 13.8026 22.0415 16.5858C22.0803 16.754 21.9638 16.9482 21.7826 17.0129Z" fill="#8F9094"/>
<path d="M18.2227 11.3172C17.4848 11.0324 16.8117 10.7605 16.4622 10.4239C17.6013 10.1133 18.4427 9.07767 18.4427 7.93851V5.18123C18.4427 2.96764 16.5139 1.02589 14.3133 1H14.3004C14.3004 1 14.3133 1 14.3004 1C12.0738 1 10.158 2.98058 10.158 5.23301V7.92557C10.158 9.06472 10.8829 10.0744 12.0091 10.3981C11.6725 10.7346 10.9347 11.0194 10.1968 11.3042C8.30683 12.0421 5.70489 13.0518 5.35537 16.4563C5.29065 17.0906 5.66605 17.699 6.26152 17.945L13.2518 20.8058C13.5625 20.9353 13.8861 21 14.2097 21C14.5334 21 14.857 20.9353 15.1677 20.8058L22.145 17.945C22.7405 17.699 23.1159 17.0906 23.0512 16.4563C22.7275 13.0647 20.1256 12.055 18.2227 11.3172ZM21.7826 17.0129L14.8052 19.8738C14.4298 20.0291 14.0285 20.0291 13.6531 19.8738L6.66282 17.0129C6.48159 16.9353 6.36508 16.754 6.37803 16.5599C6.66282 13.7767 8.73401 12.9612 10.5593 12.2492C11.4913 11.8867 12.2939 11.5761 12.7858 11.0194C13.0059 10.7605 13.0835 10.411 12.9929 10.0874C12.8894 9.75081 12.6305 9.50486 12.2939 9.41424C11.5949 9.23301 11.09 8.59871 11.09 7.91262V5.23301C11.09 3.52427 12.5657 2.02265 14.2356 2.02265H14.2486H14.2874C15.9185 2.0356 17.4201 3.53722 17.4201 5.18123V7.93851C17.4201 8.6246 16.8764 9.2589 16.1644 9.45308C15.8279 9.54369 15.5431 9.80259 15.4395 10.1392C15.336 10.4757 15.4136 10.8252 15.6466 11.0712C16.1385 11.6019 16.9282 11.9126 17.8473 12.2751C19.6855 12.9871 21.7696 13.8026 22.0415 16.5858C22.0803 16.754 21.9638 16.9482 21.7826 17.0129Z" stroke="#8F9094" stroke-width="0.8" mask="url(#path-1-outside-1)"/>
<mask id="path-2-outside-2" maskUnits="userSpaceOnUse" x="0" y="0.686035" width="11" height="17" fill="black">
<rect fill="white" y="0.686035" width="11" height="17"/>
<path d="M4.43583 16.1456L2.19635 15.1877C2.07985 15.1359 2.00218 15.0194 2.01512 14.9029C2.24813 12.6116 3.96981 11.9385 5.48438 11.3559C6.28697 11.0453 6.97305 10.7734 7.38729 10.2944C7.60735 10.0485 7.68502 9.71192 7.58146 9.40124C7.49085 9.10351 7.28373 8.88344 6.986 8.80578C6.45525 8.66338 6.13163 8.19736 6.13163 7.62778V5.34946C6.13163 3.96435 7.27079 2.76047 8.59117 2.73458C8.59117 2.73458 8.59117 2.73458 8.60412 2.73458C8.9148 2.73458 9.16075 2.7993 9.49732 2.95464C9.75622 3.07115 10.0669 2.95464 10.1834 2.69574C10.2999 2.43684 10.1834 2.12616 9.92451 2.00966C9.44554 1.7896 9.04425 1.69898 8.59117 1.69898C8.56528 1.69898 8.52645 1.69898 8.50056 1.69898V1.68604L8.52645 1.69898C6.66237 1.75076 5.12192 3.40772 5.12192 5.34946V7.61484C5.12192 8.55982 5.67855 9.40124 6.51998 9.72487C6.22224 9.95788 5.67855 10.165 5.13486 10.3721C3.51674 11.0064 1.2902 11.8608 1.00541 14.7864C0.953633 15.3559 1.27726 15.9126 1.808 16.1326L4.03454 17.0906C4.09926 17.1165 4.16399 17.1294 4.24166 17.1294C4.44878 17.1294 4.63001 17.0129 4.72062 16.8187C4.82418 16.5598 4.70768 16.2491 4.43583 16.1456Z"/>
</mask>
<path d="M4.43583 16.1456L2.19635 15.1877C2.07985 15.1359 2.00218 15.0194 2.01512 14.9029C2.24813 12.6116 3.96981 11.9385 5.48438 11.3559C6.28697 11.0453 6.97305 10.7734 7.38729 10.2944C7.60735 10.0485 7.68502 9.71192 7.58146 9.40124C7.49085 9.10351 7.28373 8.88344 6.986 8.80578C6.45525 8.66338 6.13163 8.19736 6.13163 7.62778V5.34946C6.13163 3.96435 7.27079 2.76047 8.59117 2.73458C8.59117 2.73458 8.59117 2.73458 8.60412 2.73458C8.9148 2.73458 9.16075 2.7993 9.49732 2.95464C9.75622 3.07115 10.0669 2.95464 10.1834 2.69574C10.2999 2.43684 10.1834 2.12616 9.92451 2.00966C9.44554 1.7896 9.04425 1.69898 8.59117 1.69898C8.56528 1.69898 8.52645 1.69898 8.50056 1.69898V1.68604L8.52645 1.69898C6.66237 1.75076 5.12192 3.40772 5.12192 5.34946V7.61484C5.12192 8.55982 5.67855 9.40124 6.51998 9.72487C6.22224 9.95788 5.67855 10.165 5.13486 10.3721C3.51674 11.0064 1.2902 11.8608 1.00541 14.7864C0.953633 15.3559 1.27726 15.9126 1.808 16.1326L4.03454 17.0906C4.09926 17.1165 4.16399 17.1294 4.24166 17.1294C4.44878 17.1294 4.63001 17.0129 4.72062 16.8187C4.82418 16.5598 4.70768 16.2491 4.43583 16.1456Z" fill="#8F9094"/>
<path d="M4.43583 16.1456L2.19635 15.1877C2.07985 15.1359 2.00218 15.0194 2.01512 14.9029C2.24813 12.6116 3.96981 11.9385 5.48438 11.3559C6.28697 11.0453 6.97305 10.7734 7.38729 10.2944C7.60735 10.0485 7.68502 9.71192 7.58146 9.40124C7.49085 9.10351 7.28373 8.88344 6.986 8.80578C6.45525 8.66338 6.13163 8.19736 6.13163 7.62778V5.34946C6.13163 3.96435 7.27079 2.76047 8.59117 2.73458C8.59117 2.73458 8.59117 2.73458 8.60412 2.73458C8.9148 2.73458 9.16075 2.7993 9.49732 2.95464C9.75622 3.07115 10.0669 2.95464 10.1834 2.69574C10.2999 2.43684 10.1834 2.12616 9.92451 2.00966C9.44554 1.7896 9.04425 1.69898 8.59117 1.69898C8.56528 1.69898 8.52645 1.69898 8.50056 1.69898V1.68604L8.52645 1.69898C6.66237 1.75076 5.12192 3.40772 5.12192 5.34946V7.61484C5.12192 8.55982 5.67855 9.40124 6.51998 9.72487C6.22224 9.95788 5.67855 10.165 5.13486 10.3721C3.51674 11.0064 1.2902 11.8608 1.00541 14.7864C0.953633 15.3559 1.27726 15.9126 1.808 16.1326L4.03454 17.0906C4.09926 17.1165 4.16399 17.1294 4.24166 17.1294C4.44878 17.1294 4.63001 17.0129 4.72062 16.8187C4.82418 16.5598 4.70768 16.2491 4.43583 16.1456Z" stroke="#8F9094" stroke-width="0.8" mask="url(#path-2-outside-2)"/>
<mask id="path-3-outside-3" maskUnits="userSpaceOnUse" x="17.2236" y="0.699219" width="11" height="17" fill="black">
<rect fill="white" x="17.2236" y="0.699219" width="11" height="17"/>
<path d="M27.4912 14.7866C27.1935 11.874 24.9799 11.0067 23.3618 10.3724C22.8181 10.1652 22.3133 9.95812 22.0155 9.72511C22.8828 9.40148 23.4912 8.56006 23.4912 7.61508V5.3497C23.4912 3.36912 21.8343 1.69922 19.9055 1.69922C19.4395 1.69922 18.9993 1.80278 18.5333 2.0099C18.2744 2.1264 18.145 2.43708 18.2744 2.69598C18.3909 2.95488 18.7016 3.07139 18.9605 2.95488C19.2841 2.81249 19.5948 2.73482 19.9055 2.73482C21.2518 2.73482 22.4556 3.95165 22.4556 5.3497V7.61508C22.4556 8.17171 22.0544 8.65068 21.5236 8.79307C21.2259 8.87074 20.9799 9.10375 20.8893 9.40148C20.7987 9.71216 20.8634 10.0358 21.0835 10.2817C21.5107 10.7607 22.1967 11.0326 22.9864 11.3432C24.501 11.9387 26.2226 12.6118 26.4556 14.8902C26.4686 15.0067 26.3909 15.1232 26.2615 15.1749L24.0349 16.1329C23.776 16.2494 23.6466 16.5471 23.7631 16.819C23.8537 17.0131 24.0349 17.1296 24.2421 17.1296C24.3068 17.1296 24.3844 17.1167 24.4492 17.0908L26.6757 16.1329C27.2194 15.9258 27.556 15.3691 27.4912 14.7866Z"/>
</mask>
<path d="M27.4912 14.7866C27.1935 11.874 24.9799 11.0067 23.3618 10.3724C22.8181 10.1652 22.3133 9.95812 22.0155 9.72511C22.8828 9.40148 23.4912 8.56006 23.4912 7.61508V5.3497C23.4912 3.36912 21.8343 1.69922 19.9055 1.69922C19.4395 1.69922 18.9993 1.80278 18.5333 2.0099C18.2744 2.1264 18.145 2.43708 18.2744 2.69598C18.3909 2.95488 18.7016 3.07139 18.9605 2.95488C19.2841 2.81249 19.5948 2.73482 19.9055 2.73482C21.2518 2.73482 22.4556 3.95165 22.4556 5.3497V7.61508C22.4556 8.17171 22.0544 8.65068 21.5236 8.79307C21.2259 8.87074 20.9799 9.10375 20.8893 9.40148C20.7987 9.71216 20.8634 10.0358 21.0835 10.2817C21.5107 10.7607 22.1967 11.0326 22.9864 11.3432C24.501 11.9387 26.2226 12.6118 26.4556 14.8902C26.4686 15.0067 26.3909 15.1232 26.2615 15.1749L24.0349 16.1329C23.776 16.2494 23.6466 16.5471 23.7631 16.819C23.8537 17.0131 24.0349 17.1296 24.2421 17.1296C24.3068 17.1296 24.3844 17.1167 24.4492 17.0908L26.6757 16.1329C27.2194 15.9258 27.556 15.3691 27.4912 14.7866Z" fill="#8F9094"/>
<path d="M27.4912 14.7866C27.1935 11.874 24.9799 11.0067 23.3618 10.3724C22.8181 10.1652 22.3133 9.95812 22.0155 9.72511C22.8828 9.40148 23.4912 8.56006 23.4912 7.61508V5.3497C23.4912 3.36912 21.8343 1.69922 19.9055 1.69922C19.4395 1.69922 18.9993 1.80278 18.5333 2.0099C18.2744 2.1264 18.145 2.43708 18.2744 2.69598C18.3909 2.95488 18.7016 3.07139 18.9605 2.95488C19.2841 2.81249 19.5948 2.73482 19.9055 2.73482C21.2518 2.73482 22.4556 3.95165 22.4556 5.3497V7.61508C22.4556 8.17171 22.0544 8.65068 21.5236 8.79307C21.2259 8.87074 20.9799 9.10375 20.8893 9.40148C20.7987 9.71216 20.8634 10.0358 21.0835 10.2817C21.5107 10.7607 22.1967 11.0326 22.9864 11.3432C24.501 11.9387 26.2226 12.6118 26.4556 14.8902C26.4686 15.0067 26.3909 15.1232 26.2615 15.1749L24.0349 16.1329C23.776 16.2494 23.6466 16.5471 23.7631 16.819C23.8537 17.0131 24.0349 17.1296 24.2421 17.1296C24.3068 17.1296 24.3844 17.1167 24.4492 17.0908L26.6757 16.1329C27.2194 15.9258 27.556 15.3691 27.4912 14.7866Z" stroke="#8F9094" stroke-width="0.8" mask="url(#path-3-outside-3)"/>
</svg>
