<svg width="16" height="16" viewBox="0 0 16 16" fill="none" xmlns="http://www.w3.org/2000/svg">
<path d="M7.9998 4.94281C8.13978 4.94281 8.27663 4.9013 8.39302 4.82352C8.50942 4.74575 8.60014 4.63521 8.65371 4.50588C8.70728 4.37654 8.72129 4.23423 8.69398 4.09693C8.66667 3.95963 8.59926 3.83352 8.50027 3.73453C8.40129 3.63554 8.27517 3.56813 8.13787 3.54082C8.00057 3.51351 7.85826 3.52753 7.72893 3.5811C7.5996 3.63467 7.48905 3.72539 7.41128 3.84178C7.33351 3.95818 7.29199 4.09502 7.29199 4.23501C7.29199 4.32796 7.3103 4.42 7.34587 4.50588C7.38144 4.59175 7.43358 4.66978 7.4993 4.73551C7.56503 4.80123 7.64306 4.85337 7.72893 4.88894C7.8148 4.92451 7.90684 4.94281 7.9998 4.94281Z" fill="#31353D"/>
<path d="M16 8C16 6.41775 15.5308 4.87103 14.6518 3.55544C13.7727 2.23985 12.5233 1.21447 11.0615 0.608967C9.59966 0.00346629 7.99113 -0.15496 6.43928 0.153721C4.88743 0.462403 3.46197 1.22433 2.34315 2.34315C1.22433 3.46197 0.462403 4.88743 0.153721 6.43928C-0.15496 7.99113 0.00346629 9.59966 0.608967 11.0615C1.21447 12.5233 2.23985 13.7727 3.55544 14.6518C4.87103 15.5308 6.41775 16 8 16C10.1217 16 12.1566 15.1571 13.6569 13.6569C15.1571 12.1566 16 10.1217 16 8ZM8 14.5778C6.69904 14.5778 5.42729 14.192 4.34559 13.4692C3.26388 12.7464 2.42079 11.7191 1.92293 10.5172C1.42507 9.31528 1.29481 7.9927 1.54862 6.71674C1.80242 5.44078 2.42889 4.26873 3.34881 3.34881C4.26873 2.42889 5.44078 1.80242 6.71674 1.54862C7.9927 1.29481 9.31528 1.42507 10.5172 1.92293C11.7191 2.42079 12.7464 3.26388 13.4692 4.34559C14.192 5.42729 14.5778 6.69904 14.5778 8C14.5758 9.74393 13.8822 11.4159 12.649 12.649C11.4159 13.8822 9.74393 14.5758 8 14.5778Z" fill="#31353D"/>
<path d="M9.25181 11.4222C9.00687 11.3437 8.70754 11.1134 8.70754 10.4567V6.14565C8.70754 6.13034 8.70452 6.11518 8.69866 6.10103C8.69281 6.08689 8.68422 6.07403 8.67339 6.0632C8.66256 6.05238 8.64971 6.04379 8.63556 6.03793C8.62141 6.03207 8.60625 6.02905 8.59094 6.02905H6.8726C6.81508 6.02905 6.75812 6.04038 6.70498 6.06239C6.65183 6.08441 6.60354 6.11667 6.56287 6.15734C6.52219 6.19802 6.48993 6.2463 6.46791 6.29945C6.4459 6.35259 6.43457 6.40955 6.43457 6.46707C6.43537 6.56121 6.46616 6.65264 6.52247 6.72808C6.57878 6.80352 6.65768 6.85904 6.7477 6.88657C6.99263 6.96508 7.29194 7.19535 7.29194 7.85201V10.4567C7.29194 11.1134 6.99263 11.3437 6.7477 11.4222C6.65768 11.4497 6.57878 11.5052 6.52247 11.5807C6.46616 11.6561 6.43537 11.7475 6.43457 11.8417C6.43457 11.8992 6.4459 11.9561 6.46791 12.0093C6.48993 12.0624 6.52219 12.1107 6.56287 12.1514C6.60354 12.1921 6.65183 12.2243 6.70498 12.2463C6.75812 12.2684 6.81508 12.2797 6.8726 12.2797H9.12692C9.18444 12.2797 9.2414 12.2684 9.29454 12.2463C9.34769 12.2243 9.39597 12.1921 9.43665 12.1514C9.47732 12.1107 9.50959 12.0624 9.5316 12.0093C9.55361 11.9561 9.56494 11.8992 9.56494 11.8417C9.56414 11.7475 9.53335 11.6561 9.47704 11.5807C9.42073 11.5052 9.34183 11.4497 9.25181 11.4222Z" fill="#31353D"/>
</svg>
