<svg width="14" height="16" viewBox="0 0 14 16" fill="none" xmlns="http://www.w3.org/2000/svg">
<path fill-rule="evenodd" clip-rule="evenodd" d="M5.00017 0.666626H9.00017C9.73655 0.666626 10.3335 1.26358 10.3335 1.99996V2.66663H12.3335C13.0699 2.66663 13.6668 3.26358 13.6668 3.99996V5.33329C13.6668 6.06967 13.0699 6.66663 12.3335 6.66663H12.2801L11.6668 14C11.6668 14.7363 11.0699 15.3333 10.3335 15.3333H3.66684C2.93046 15.3333 2.33351 14.7363 2.33581 14.0553L1.72009 6.66663H1.66683C0.93045 6.66663 0.333496 6.06967 0.333496 5.33329V3.99996C0.333496 3.26358 0.93045 2.66663 1.66683 2.66663H3.66684V1.99996C3.66684 1.26358 4.26379 0.666626 5.00017 0.666626ZM10.9423 6.66662L10.3358 13.9446L10.3335 14H3.66683L3.05782 6.66662H10.9423ZM1.66684 5.33329V3.99996H12.3335V5.33329H1.66684ZM9.00015 1.99996V2.66663H5.00015V1.99996H9.00015Z" fill="#31353D"/>
</svg>
