<svg width="20" height="20" viewBox="0 0 20 20" fill="none" xmlns="http://www.w3.org/2000/svg">
<path d="M15.5241 10.7882L15.4972 10.7676L15.4196 10.708L15.5241 10.7882ZM15.5241 10.7882H15.5581M15.5241 10.7882H15.5581M15.5581 10.7882H15.7776H15.8115M15.5581 10.7882H15.8115M15.8115 10.7882L15.8384 10.7676M15.8115 10.7882L15.8384 10.7676M15.8384 10.7676L15.9161 10.708C15.9926 10.6493 16.0677 10.5887 16.1415 10.5271M15.8384 10.7676L16.1415 10.5271M18.2461 3.74234C18.3486 4.20938 18.3542 4.73928 18.259 5.36409L18.259 5.36412C17.9909 7.12681 17.0522 8.77381 15.6675 9.92551C14.2829 8.7738 13.3441 7.12654 13.076 5.36412C12.9811 4.73984 12.9864 4.21022 13.0892 3.74235C13.3537 2.5375 14.4387 1.66268 15.6675 1.66268C16.8963 1.66268 17.9814 2.53748 18.2461 3.74234ZM18.2461 3.74234L18.3438 3.72091M18.2461 3.74234C18.2461 3.74235 18.2462 3.74236 18.2462 3.74237L18.3438 3.72091M18.3438 3.72091C18.4496 4.20289 18.4544 4.74561 18.3579 5.37915L18.3438 3.72091ZM16.1415 10.5271C16.1517 10.6306 16.1595 10.7344 16.1651 10.8385H13.1924C13.1635 9.72441 13.0087 8.67957 12.7522 7.74772C12.8239 7.71175 12.8957 7.67444 12.9675 7.63573C13.5212 8.83069 14.3619 9.897 15.4195 10.7079L16.1415 10.5271ZM19.0238 5.47715L19.0238 5.47712C19.1318 4.76616 19.1255 4.1452 19.0017 3.58081C18.6607 2.02709 17.2586 0.9 15.6675 0.9C14.0761 0.9 12.6744 2.0271 12.3336 3.58082C12.3 3.73354 12.2783 3.89153 12.2634 4.05208C11.2222 3.58537 10.0811 3.33999 8.92776 3.33999C4.50283 3.33999 0.9 6.87299 0.9 11.22C0.9 15.567 4.50283 19.1 8.92776 19.1C13.3527 19.1 16.9555 15.567 16.9555 11.22C16.9555 10.7704 16.9165 10.3197 16.8394 9.8798C17.9952 8.67235 18.7736 7.12146 19.0238 5.47715ZM5.03074 14.371C4.42789 14.6844 3.82369 15.0925 3.22653 15.6142C2.32959 14.4966 1.76678 13.1104 1.6853 11.6009H4.67369C4.69921 12.5888 4.82371 13.5225 5.03074 14.371ZM7.21389 5.2525C7.62173 4.78121 8.07243 4.47404 8.54122 4.36341V7.78154C7.65153 7.6984 6.83014 7.47019 6.12191 7.19474C6.4154 6.40739 6.78902 5.74346 7.21389 5.2525ZM8.54122 8.54975V10.8385H5.44712C5.47784 9.79246 5.63374 8.80094 5.88458 7.92027C6.65999 8.2184 7.56159 8.46561 8.54122 8.54975ZM9.3143 8.58116C10.1813 8.57475 11.095 8.42388 12.0233 8.06932C12.2498 8.91221 12.3899 9.8516 12.419 10.8391H9.3143V8.58116ZM9.3143 7.81568V4.36099C9.79966 4.47245 10.2659 4.79454 10.6855 5.29127C11.1222 5.80832 11.5032 6.5089 11.7965 7.33808C10.9472 7.66911 10.1103 7.80859 9.3143 7.81568ZM5.39389 6.8799C4.75402 6.57458 4.25488 6.26106 3.94815 6.05051C4.79699 5.26292 5.83844 4.67363 6.99542 4.35952C6.34194 4.9431 5.79349 5.8143 5.39389 6.8799ZM5.15261 7.60799C4.87244 8.57459 4.70381 9.6688 4.67342 10.8385H1.68502C1.77212 9.22927 2.40654 7.76063 3.40921 6.60739C3.74481 6.84376 4.35084 7.23417 5.15261 7.60799ZM8.54122 13.4866C7.65041 13.4976 6.71168 13.6559 5.75871 14.0361C5.58144 13.2816 5.47208 12.4595 5.4471 11.6012H8.54122V13.4866ZM5.96036 14.773C6.84595 14.4004 7.71647 14.2401 8.54122 14.2231V18.0763C8.02598 17.9546 7.53261 17.5954 7.09439 17.0426C6.63802 16.4669 6.24734 15.6881 5.96036 14.773ZM10.7435 17.0792C10.3092 17.6151 9.82219 17.9621 9.3143 18.0787V14.2482C10.2648 14.3274 11.1355 14.577 11.8743 14.875C11.5845 15.7657 11.1954 16.5215 10.7435 17.0792ZM12.0763 14.1642C11.277 13.8539 10.3376 13.5941 9.3143 13.5118V11.6009H12.419C12.3925 12.5086 12.2716 13.3751 12.0763 14.1642ZM12.8097 14.4793C13.0325 13.6024 13.1658 12.6307 13.1924 11.6012H16.1705C16.0898 13.091 15.5403 14.46 14.6637 15.57C14.4388 15.4022 13.7727 14.9321 12.8097 14.4793ZM12.5191 7.00936C12.1176 5.88973 11.5551 4.97446 10.8795 4.3675C11.3536 4.49709 11.8136 4.67365 12.2511 4.89519C12.2626 5.08187 12.2806 5.27436 12.3115 5.47714C12.3865 5.97044 12.5098 6.45508 12.6759 6.92482C12.6235 6.95378 12.5713 6.982 12.5191 7.00936ZM6.99548 18.0802C5.74103 17.7395 4.62254 17.0752 3.73804 16.1853C4.23846 15.748 4.74168 15.3997 5.24268 15.1231C5.65006 16.3882 6.25537 17.419 6.99548 18.0802ZM14.1568 16.1457C13.2702 17.0517 12.1427 17.7286 10.8759 18.0755C11.5988 17.4276 12.1928 16.4265 12.5987 15.199C13.3843 15.5874 13.9366 15.9795 14.1568 16.1457Z" fill="#31353D" stroke="#31353D" stroke-width="0.2"/>
<path d="M15.66 2.61254C14.7171 2.61254 13.9474 3.36559 13.9474 4.29514C13.9474 5.22469 14.7171 5.97775 15.66 5.97775C16.6029 5.97775 17.373 5.22472 17.373 4.29514C17.373 3.36557 16.6029 2.61254 15.66 2.61254ZM15.66 5.21562C15.1404 5.21562 14.7204 4.8011 14.7204 4.29542C14.7204 3.78975 15.1404 3.37522 15.66 3.37522C16.18 3.37522 16.5999 3.79003 16.5999 4.29542C16.5999 4.80082 16.18 5.21562 15.66 5.21562Z" fill="#31353D" stroke="#31353D" stroke-width="0.2"/>
</svg>
