<svg fill="none" height="66" viewBox="0 0 240 66" width="240" xmlns="http://www.w3.org/2000/svg"><path d="m2.61255 49.8931h16.86015v7.8012l5.6936 6.1349h90.9767v-14.896h86.287v14.896h35.596v-61.53733h-229.71984l-5.47293 5.47293z" fill="#fff"/><path d="m201.425 48.9998h-84.819v13.6492h84.819z" fill="#f9de53"/><g fill="#31353d"><path d="m21.9772 15.4338h-3.2771v5.164h3.2771z"/><path d="m117.786 15.4338h-3.277v5.164h3.277z"/><path d="m11.6375.0172171h-.3531c-1.52913-.0840573-3.05952.1402819-4.50016.6596719-1.44065.519391-2.76212 1.323221-3.88581 2.363681-.9665.99309-1.72113 2.17222-2.218088 3.46582-.496955 1.29361-.725871 2.6747-.67285277 4.05941v41.4663h17.40081077v2.9461c-.0556 1.3851.1721 2.7669.6692 4.0609.4971 1.2939 1.2531 2.4728 2.2218 3.4644 1.125 1.0418 2.4483 1.8464 3.8909 2.3659 1.4427.5194 2.9751.743 4.506.6574h211.3038v-65.5095829zm209.6485 4.5681329h14.124v42.87865h-14.124zm-86.276 0h14.124v9.77625l4.149-9.76522h14.123l-9.147 21.43932 9.622 21.4283h-14.124l-4.601-10.2397v10.2397h-14.124zm-68.7977 32.03205 15.0285-21.1524h-15.0285v-10.87965h31.1163v10.87965l-14.0354 21.1524h14.0464v10.8466h-31.1273zm-3.3102 24.3413h-34.2059c-4.8439 0-6.7087-2.5268-6.7087-5.9805v-23.5247h-3.3102v16.0105h-14.10168v-36.8982c0-3.45364 1.87581-5.98045 6.70878-5.98045h18.107c4.833 0 6.7088 2.52681 6.7088 5.98045v39.5464h26.8019zm0-45.4937h-9.2687v5.175h9.2687v10.8466h-9.2687v5.1639h9.2687v10.8135h-23.3924v-42.87865h23.3924zm65.1009 45.5268-3.597-2.2068-3.597 2.2068.949-4.0936-3.122-2.8137 4.192-.3642 1.634-3.8509 1.633 3.8509 4.193.3642-3.178 2.7585zm3.84-48.186v34.6582h-14.123v-16.0105h-3.311v23.5247c0 3.4537-1.875 5.9805-6.708 5.9805h-41.4887v-10.8465h34.2057v-39.5464c0-3.45364 1.865-5.98045 6.709-5.98045h18.107c4.833 0 6.698 2.52681 6.698 5.98045zm10.13 48.186-3.597-2.2068-3.609 2.2068.96-4.0936-3.122-2.8137 4.182-.3642 1.644-3.8509 1.633 3.8509 4.193.3642-3.178 2.7585zm13.969 0-3.608-2.2068-3.597 2.2068.96-4.0936-3.123-2.8137 4.182-.3642 1.633-3.8509 1.644 3.8509 4.182.3642-3.178 2.7585zm13.969 0-3.608-2.2068-3.597 2.2068.949-4.0936-3.123-2.8137 4.193-.3642 1.633-3.8509 1.644 3.8509 4.138.3642-3.178 2.7585zm13.958 0-3.597-2.2068-3.597 2.2068.949-4.0936-3.123-2.8137 4.193-.3642 1.633-3.8509 1.633 3.8509 4.193.3642-3.177 2.7585zm13.97 0-3.598-2.2068-3.597 2.2068.949-4.0936-3.122-2.8137 4.193-.3642 1.633-3.8509 1.633 3.8509 4.193.3642-3.178 2.7585zm37.516 0h-24.375c-4.833 0-6.697-2.5268-6.697-5.9805v-39.5463h-3.311v31.999h-14.123v-31.999h-3.311v31.999h-14.123v-42.87865h14.123v2.57095s2.02-2.57095 9.39-2.57095c4.215 0 6.179 1.85373 7.095 3.44265 0 0 1.181-3.44265 8.96-3.44265s9.412 4.51296 9.412 6.74185v38.785h17.026z"/></g></svg>